<svg
  xmlns="http://www.w3.org/2000/svg"
  xmlns:xlink="http://www.w3.org/1999/xlink"
>
  <defs>
    <style>
      .cls-1 {
        fill: none;
      }
      .cls-2 {
        clip-path: url(#clip-path);
      }
      .cls-3 {
        fill: #e49c01;
      }
      .cls-4 {
        fill: #e6e6e6;
      }
    </style>
    <clipPath id="clip-path">
      <rect class="cls-1" x="66.53" y="18.62" />
    </clipPath>
  </defs>
  <title>logo</title>
  <g id="Layer_2" data-name="Layer 2">
    <g id="Layer_1-2" data-name="Layer 1">
      <g class="cls-2">
        <g id="mark">
          <g id="STRIPES">
            <rect
              class="cls-3"
              x="42.02"
              y="-7.96"
              ransform="translate(-24.09 47.27) rotate(-45)"
            />
            <polygon
              class="cls-3"
              points="92.69 39.54 93.73 39.54 54.19 0 49.95 4.24 92.69 46.98 92.69 39.54"
            />
            <polygon
              class="cls-3"
              points="118.37 72.66 139.59 93.88 143.83 89.64 126.85 72.66 118.37 72.66"
            />
            <polygon
              class="cls-3"
              points="148.73 39.82 115.27 6.36 111.03 10.6 140.25 39.82 148.73 39.82"
            />
            <polygon
              class="cls-3"
              points="173.37 72.94 194.48 94.05 198.72 89.81 181.85 72.94 173.37 72.94"
            />
          </g>
          <g id="TXT">
            <path
              class="cls-3"
              d="M99.67,68l1.86-9.52H96.1l.78-4h16.27l-.78,4H107L105.11,68Z"
            />
            <path
              class="cls-3"
              d="M116.33,66.86a4.93,4.93,0,0,1-2.14-3,6.42,6.42,0,0,1-.2-1.62,7.06,7.06,0,0,1,.15-1.5l1.22-6.24h5.42l-1.21,6.24a3.67,3.67,0,0,0-.07.77,2.11,2.11,0,0,0,.42,1.38,3.12,3.12,0,0,0,2.68,1h.06a3.41,3.41,0,0,0,2.71-1,4.37,4.37,0,0,0,.92-2.15l1.22-6.24h5.41l-1.2,6.24c-.12.67-.24,1.24-.35,1.72a8.38,8.38,0,0,1-.51,1.42,6.78,6.78,0,0,1-2.53,3,10.38,10.38,0,0,1-5.66,1.36h-.54A10.43,10.43,0,0,1,116.33,66.86Z"
            />
            <path
              class="cls-3"
              d="M133.09,68l2.64-13.57H143l2,6.95,4.54-6.95h7.62L154.47,68H149.1l1.61-8.24L145.24,68h-3.12l-2.25-8.24L138.27,68Z"
            />
            <path class="cls-3" d="M165.39,54.45,162.77,68h-5.46L160,54.45Z" />
            <path
              class="cls-3"
              d="M171.69,63.93a.86.86,0,0,0,.25.41,2.92,2.92,0,0,0,2,.53h.11a4.87,4.87,0,0,0,2.21-.35.86.86,0,0,0,.37-.32.71.71,0,0,0,.1-.39.69.69,0,0,0-.42-.66,4.63,4.63,0,0,0-1.86-.31l-1.38,0q-3.44-.12-4.87-1.24a3,3,0,0,1-1-1.27,4.77,4.77,0,0,1-.28-1.72,3.51,3.51,0,0,1,1.49-3q1.9-1.35,6.09-1.35h.84a16.6,16.6,0,0,1,5.31.66A3.92,3.92,0,0,1,183,56.55,3.27,3.27,0,0,1,183.3,58a4.15,4.15,0,0,1-.05.69h-5.73a.91.91,0,0,0-.31-.76,3.64,3.64,0,0,0-2-.42h-.13a4.73,4.73,0,0,0-2,.29.74.74,0,0,0-.33.29.82.82,0,0,0-.09.4.64.64,0,0,0,.42.59,4.74,4.74,0,0,0,1.75.25l1.42,0a15.56,15.56,0,0,1,3.2.35,5.08,5.08,0,0,1,1.94.85,2.66,2.66,0,0,1,.92,1.26,5.56,5.56,0,0,1,.25,1.79,3.65,3.65,0,0,1-1.57,3.15c-1.36,1-3.65,1.46-6.86,1.46h-.4a14.83,14.83,0,0,1-5.47-.8A3.82,3.82,0,0,1,166,65.58a3.42,3.42,0,0,1-.29-1.41,5.27,5.27,0,0,1,0-.71h5.86A2.29,2.29,0,0,0,171.69,63.93Z"
            />
            <path
              class="cls-3"
              d="M194.65,54.22a11.85,11.85,0,0,1,5.4,1,5.25,5.25,0,0,1,2.5,2.42,6.46,6.46,0,0,1,.6,2.81,8.36,8.36,0,0,1-.64,3.34,6.59,6.59,0,0,1-2.7,3.08,11.54,11.54,0,0,1-5.93,1.35h-.82a11.65,11.65,0,0,1-5.4-1.06,5.46,5.46,0,0,1-2.5-2.48,6.28,6.28,0,0,1-.6-2.81,7.94,7.94,0,0,1,.66-3.3,6.48,6.48,0,0,1,2.7-3.06,11.55,11.55,0,0,1,5.91-1.33ZM196.88,59a3.55,3.55,0,0,0-2.65-.84,3.86,3.86,0,0,0-3.36,1.39,3.68,3.68,0,0,0-.62,2.17,2.26,2.26,0,0,0,.62,1.64,3.48,3.48,0,0,0,2.63.86,3.87,3.87,0,0,0,3.38-1.37,3.73,3.73,0,0,0,.6-2.19A2.37,2.37,0,0,0,196.88,59Z"
            />
            <path
              class="cls-3"
              d="M216.54,68l-5.67-7.6L209.39,68h-5.33l2.65-13.57h5.52l5.4,7.26,1.42-7.26h5.31L221.72,68Z"
            />
            <path
              class="cls-3"
              d="M236.82,63.77a1.89,1.89,0,0,0,.59-.44,1.76,1.76,0,0,0,.29-.45h-4l.51-2.55h9.68L242.44,68h-3.67a6.4,6.4,0,0,0-.33-1.66,6.16,6.16,0,0,1-1.67,1.15,9,9,0,0,1-3.78.75h-.33A7.82,7.82,0,0,1,227,66.42a5.35,5.35,0,0,1-1.34-2,7.17,7.17,0,0,1-.43-2.54,7.81,7.81,0,0,1,.78-3.54,6.66,6.66,0,0,1,2.88-2.92,12.28,12.28,0,0,1,5.82-1.22h.62a15.58,15.58,0,0,1,5.73.87,4.62,4.62,0,0,1,2.44,2,3.92,3.92,0,0,1,.48,1.93,2.93,2.93,0,0,1,0,.36h-5.73a2,2,0,0,0-.19-.42,1.38,1.38,0,0,0-.39-.36,5.16,5.16,0,0,0-2.63-.51,4.18,4.18,0,0,0-3.37,1.24,3.53,3.53,0,0,0-.77,2.32,2.5,2.5,0,0,0,.68,1.84,3.36,3.36,0,0,0,2.53.84A5.51,5.51,0,0,0,236.82,63.77Z"
            />
            <path
              d="M100.67,67l1.86-9.52H97.1l.78-4h16.27l-.78,4H108L106.11,67Z"
            />
            <path
              d="M117.33,65.86a4.93,4.93,0,0,1-2.14-3,6.42,6.42,0,0,1-.2-1.62,7.06,7.06,0,0,1,.15-1.5l1.22-6.24h5.42l-1.21,6.24a3.67,3.67,0,0,0-.07.77,2.11,2.11,0,0,0,.42,1.38,3.12,3.12,0,0,0,2.68,1h.06a3.41,3.41,0,0,0,2.71-1,4.37,4.37,0,0,0,.92-2.15l1.22-6.24h5.41l-1.2,6.24c-.12.67-.24,1.24-.35,1.72a8.38,8.38,0,0,1-.51,1.42,6.78,6.78,0,0,1-2.53,3,10.38,10.38,0,0,1-5.66,1.36h-.54A10.43,10.43,0,0,1,117.33,65.86Z"
            />
            <path
              d="M134.09,67l2.64-13.57H144l2,6.95,4.54-6.95h7.62L155.47,67H150.1l1.61-8.24L146.24,67h-3.12l-2.25-8.24L139.27,67Z"
            />
            <path d="M166.39,53.45,163.77,67h-5.46L161,53.45Z" />
            <path
              d="M172.69,62.93a.86.86,0,0,0,.25.41,2.92,2.92,0,0,0,2,.53h.11a4.87,4.87,0,0,0,2.21-.35.86.86,0,0,0,.37-.32.71.71,0,0,0,.1-.39.69.69,0,0,0-.42-.66,4.63,4.63,0,0,0-1.86-.31l-1.38,0q-3.44-.12-4.87-1.24a3,3,0,0,1-1-1.27,4.77,4.77,0,0,1-.28-1.72,3.51,3.51,0,0,1,1.49-3q1.9-1.35,6.09-1.35h.84a16.6,16.6,0,0,1,5.31.66A3.92,3.92,0,0,1,184,55.55,3.27,3.27,0,0,1,184.3,57a4.15,4.15,0,0,1-.05.69h-5.73a.91.91,0,0,0-.31-.76,3.64,3.64,0,0,0-2-.42h-.13a4.73,4.73,0,0,0-2,.29.74.74,0,0,0-.33.29.82.82,0,0,0-.09.4.64.64,0,0,0,.42.59,4.74,4.74,0,0,0,1.75.25l1.42,0a15.56,15.56,0,0,1,3.2.35,5.08,5.08,0,0,1,1.94.85,2.66,2.66,0,0,1,.92,1.26,5.56,5.56,0,0,1,.25,1.79,3.65,3.65,0,0,1-1.57,3.15c-1.36,1-3.65,1.46-6.86,1.46h-.4a14.83,14.83,0,0,1-5.47-.8A3.82,3.82,0,0,1,167,64.58a3.42,3.42,0,0,1-.29-1.41,5.27,5.27,0,0,1,0-.71h5.86A2.29,2.29,0,0,0,172.69,62.93Z"
            />
            <path
              d="M195.65,53.22a11.85,11.85,0,0,1,5.4,1,5.25,5.25,0,0,1,2.5,2.42,6.46,6.46,0,0,1,.6,2.81,8.36,8.36,0,0,1-.64,3.34,6.59,6.59,0,0,1-2.7,3.08,11.54,11.54,0,0,1-5.93,1.35h-.82a11.65,11.65,0,0,1-5.4-1.06,5.46,5.46,0,0,1-2.5-2.48,6.28,6.28,0,0,1-.6-2.81,7.94,7.94,0,0,1,.66-3.3,6.48,6.48,0,0,1,2.7-3.06,11.55,11.55,0,0,1,5.91-1.33ZM197.88,58a3.55,3.55,0,0,0-2.65-.84,3.86,3.86,0,0,0-3.36,1.39,3.68,3.68,0,0,0-.62,2.17,2.26,2.26,0,0,0,.62,1.64,3.48,3.48,0,0,0,2.63.86,3.87,3.87,0,0,0,3.38-1.37,3.73,3.73,0,0,0,.6-2.19A2.37,2.37,0,0,0,197.88,58Z"
            />
            <path
              d="M217.54,67l-5.67-7.6L210.39,67h-5.33l2.65-13.57h5.52l5.4,7.26,1.42-7.26h5.31L222.72,67Z"
            />
            <path
              d="M237.82,62.77a1.89,1.89,0,0,0,.59-.44,1.76,1.76,0,0,0,.29-.45h-4l.51-2.55h9.68L243.44,67h-3.67a6.4,6.4,0,0,0-.33-1.66,6.16,6.16,0,0,1-1.67,1.15,9,9,0,0,1-3.78.75h-.33A7.82,7.82,0,0,1,228,65.42a5.35,5.35,0,0,1-1.34-2,7.17,7.17,0,0,1-.43-2.54,7.81,7.81,0,0,1,.78-3.54,6.66,6.66,0,0,1,2.88-2.92,12.28,12.28,0,0,1,5.82-1.22h.62a15.58,15.58,0,0,1,5.73.87,4.62,4.62,0,0,1,2.44,2,3.92,3.92,0,0,1,.48,1.93,2.93,2.93,0,0,1,0,.36h-5.73a2,2,0,0,0-.19-.42,1.38,1.38,0,0,0-.39-.36,5.16,5.16,0,0,0-2.63-.51,4.18,4.18,0,0,0-3.37,1.24,3.53,3.53,0,0,0-.77,2.32,2.5,2.5,0,0,0,.68,1.84,3.36,3.36,0,0,0,2.53.84A5.51,5.51,0,0,0,237.82,62.77Z"
            />
            <path
              class="cls-4"
              d="M101.67,66l1.86-9.52H98.1l.78-4h16.27l-.78,4H109L107.11,66Z"
            />
            <path
              class="cls-4"
              d="M118.33,64.86a4.93,4.93,0,0,1-2.14-3,6.42,6.42,0,0,1-.2-1.62,7.06,7.06,0,0,1,.15-1.5l1.22-6.24h5.42l-1.21,6.24a3.67,3.67,0,0,0-.07.77,2.11,2.11,0,0,0,.42,1.38,3.12,3.12,0,0,0,2.68,1h.06a3.41,3.41,0,0,0,2.71-1,4.37,4.37,0,0,0,.92-2.15l1.22-6.24h5.41l-1.2,6.24c-.12.67-.24,1.24-.35,1.72a8.38,8.38,0,0,1-.51,1.42,6.78,6.78,0,0,1-2.53,3,10.38,10.38,0,0,1-5.66,1.36h-.54A10.43,10.43,0,0,1,118.33,64.86Z"
            />
            <path
              class="cls-4"
              d="M135.09,66l2.64-13.57H145l2,6.95,4.54-6.95h7.62L156.47,66H151.1l1.61-8.24L147.24,66h-3.12l-2.25-8.24L140.27,66Z"
            />
            <path class="cls-4" d="M167.39,52.45,164.77,66h-5.46L162,52.45Z" />
            <path
              class="cls-4"
              d="M173.69,61.93a.86.86,0,0,0,.25.41,2.92,2.92,0,0,0,2,.53h.11a4.87,4.87,0,0,0,2.21-.35.86.86,0,0,0,.37-.32.71.71,0,0,0,.1-.39.69.69,0,0,0-.42-.66,4.63,4.63,0,0,0-1.86-.31l-1.38,0q-3.44-.12-4.87-1.24a3,3,0,0,1-1-1.27,4.77,4.77,0,0,1-.28-1.72,3.51,3.51,0,0,1,1.49-3q1.9-1.35,6.09-1.35h.84a16.6,16.6,0,0,1,5.31.66A3.92,3.92,0,0,1,185,54.55,3.27,3.27,0,0,1,185.3,56a4.15,4.15,0,0,1-.05.69h-5.73a.91.91,0,0,0-.31-.76,3.64,3.64,0,0,0-2-.42h-.13a4.73,4.73,0,0,0-2,.29.74.74,0,0,0-.33.29.82.82,0,0,0-.09.4.64.64,0,0,0,.42.59,4.74,4.74,0,0,0,1.75.25l1.42,0a15.56,15.56,0,0,1,3.2.35,5.08,5.08,0,0,1,1.94.85,2.66,2.66,0,0,1,.92,1.26,5.56,5.56,0,0,1,.25,1.79,3.65,3.65,0,0,1-1.57,3.15c-1.36,1-3.65,1.46-6.86,1.46h-.4a14.83,14.83,0,0,1-5.47-.8A3.82,3.82,0,0,1,168,63.58a3.42,3.42,0,0,1-.29-1.41,5.27,5.27,0,0,1,0-.71h5.86A2.29,2.29,0,0,0,173.69,61.93Z"
            />
            <path
              class="cls-4"
              d="M196.65,52.22a11.85,11.85,0,0,1,5.4,1,5.25,5.25,0,0,1,2.5,2.42,6.46,6.46,0,0,1,.6,2.81,8.36,8.36,0,0,1-.64,3.34,6.59,6.59,0,0,1-2.7,3.08,11.54,11.54,0,0,1-5.93,1.35h-.82a11.65,11.65,0,0,1-5.4-1.06,5.46,5.46,0,0,1-2.5-2.48,6.28,6.28,0,0,1-.6-2.81,7.94,7.94,0,0,1,.66-3.3,6.48,6.48,0,0,1,2.7-3.06,11.55,11.55,0,0,1,5.91-1.33ZM198.88,57a3.55,3.55,0,0,0-2.65-.84,3.86,3.86,0,0,0-3.36,1.39,3.68,3.68,0,0,0-.62,2.17,2.26,2.26,0,0,0,.62,1.64,3.48,3.48,0,0,0,2.63.86,3.87,3.87,0,0,0,3.38-1.37,3.73,3.73,0,0,0,.6-2.19A2.37,2.37,0,0,0,198.88,57Z"
            />
            <path
              class="cls-4"
              d="M218.54,66l-5.67-7.6L211.39,66h-5.33l2.65-13.57h5.52l5.4,7.26,1.42-7.26h5.31L223.72,66Z"
            />
            <path
              class="cls-4"
              d="M238.82,61.77a1.89,1.89,0,0,0,.59-.44,1.76,1.76,0,0,0,.29-.45h-4l.51-2.55h9.68L244.44,66h-3.67a6.4,6.4,0,0,0-.33-1.66,6.16,6.16,0,0,1-1.67,1.15,9,9,0,0,1-3.78.75h-.33A7.82,7.82,0,0,1,229,64.42a5.35,5.35,0,0,1-1.34-2,7.17,7.17,0,0,1-.43-2.54,7.81,7.81,0,0,1,.78-3.54,6.66,6.66,0,0,1,2.88-2.92,12.28,12.28,0,0,1,5.82-1.22h.62a15.58,15.58,0,0,1,5.73.87,4.62,4.62,0,0,1,2.44,2,3.92,3.92,0,0,1,.48,1.93,2.93,2.93,0,0,1,0,.36h-5.73a2,2,0,0,0-.19-.42,1.38,1.38,0,0,0-.39-.36,5.16,5.16,0,0,0-2.63-.51,4.18,4.18,0,0,0-3.37,1.24,3.53,3.53,0,0,0-.77,2.32,2.5,2.5,0,0,0,.68,1.84,3.36,3.36,0,0,0,2.53.84A5.51,5.51,0,0,0,238.82,61.77Z"
            />
          </g>
        </g>
      </g>
    </g>
  </g>
</svg>
