<svg version="1.1" x="0px" y="0px" width="194.7px" height="20.8px" viewBox="0 0 194.7 20.8"
            xml:space="preserve">
            <style type="text/css">
                .st0 {
                    fill: #FEAE01;
                }

                .st1 {
                    fill: #E6E6E6;
                }
            </style>
            <g>
                <g>
                    <g id="far_x5F_back_1_">
                        <path class="st0" d="M4.5,20.5L6.8,7.9H0l1-5.3h20.4l-1,5.3h-6.8l-2.3,12.6H4.5z" />
                        <path class="st0" d="M26.4,18.9c-1.4-1-2.3-2.3-2.7-4c-0.2-0.7-0.3-1.4-0.3-2.1c0-0.7,0.1-1.4,0.2-2l1.5-8.2H32l-1.5,8.2
    c-0.1,0.3-0.1,0.6-0.1,1c0,0.8,0.2,1.4,0.5,1.8c0.6,0.9,1.7,1.3,3.4,1.3h0.1c1.5,0,2.7-0.4,3.4-1.3c0.5-0.7,0.9-1.6,1.1-2.8
    l1.5-8.2h6.8l-1.5,8.2c-0.2,0.9-0.3,1.6-0.4,2.3c-0.1,0.6-0.4,1.3-0.6,1.9c-0.8,1.8-1.8,3.1-3.2,4c-1.8,1.2-4.1,1.8-7.1,1.8h-0.7
    C30.5,20.8,28.1,20.1,26.4,18.9z" />
                        <path class="st0"
                            d="M48.4,20.5l3.3-17.9h9.1l2.4,9.2l5.7-9.2h9.5l-3.3,17.9h-6.7l2-10.9l-6.9,10.9h-3.9L56.9,9.6l-2,10.9H48.4z" />
                        <path class="st0" d="M89.9,2.6l-3.3,17.9h-6.8l3.3-17.9H89.9z" />
                        <path class="st0" d="M98.9,15.1c0,0.2,0.1,0.4,0.3,0.5c0.4,0.5,1.3,0.7,2.6,0.7h0.1c1.3,0,2.3-0.2,2.8-0.5
    c0.2-0.1,0.4-0.3,0.5-0.4c0.1-0.2,0.1-0.3,0.1-0.5c0-0.4-0.2-0.7-0.5-0.9c-0.5-0.3-1.2-0.4-2.3-0.4l-1.7,0
    c-2.9-0.1-4.9-0.6-6.1-1.6c-0.6-0.5-1-1-1.2-1.7C93.1,9.7,93,8.9,93,8c0-1.7,0.6-3,1.9-3.9c1.6-1.2,4.1-1.8,7.6-1.8h1.1
    c2.9,0,5.1,0.3,6.6,0.9c1.4,0.5,2.3,1.2,2.8,2.2c0.3,0.6,0.4,1.2,0.4,1.9c0,0.3,0,0.6-0.1,0.9h-7.2c0-0.4-0.1-0.8-0.4-1
    c-0.5-0.4-1.3-0.6-2.5-0.6h-0.2c-1.2,0-2.1,0.1-2.6,0.4c-0.2,0.1-0.3,0.2-0.4,0.4C100,7.5,100,7.7,100,7.9c0,0.3,0.2,0.6,0.5,0.8
    c0.4,0.2,1.1,0.3,2.2,0.3l1.8,0c1.6,0,3,0.2,4,0.5c1,0.3,1.9,0.6,2.4,1.1c0.5,0.4,0.9,1,1.1,1.7c0.2,0.7,0.3,1.4,0.3,2.4
    c0,1.8-0.7,3.2-2,4.2c-1.7,1.3-4.6,1.9-8.6,1.9h-0.5c-2.9,0-5.2-0.4-6.9-1.1c-1.4-0.6-2.3-1.4-2.7-2.5c-0.2-0.6-0.4-1.2-0.4-1.9
    c0-0.3,0-0.6,0.1-0.9h7.3C98.8,14.7,98.8,14.9,98.9,15.1z" />
                        <path class="st0" d="M127.9,1.5c2.8,0,5.1,0.5,6.8,1.4c1.5,0.8,2.5,1.8,3.1,3.2c0.5,1.1,0.8,2.3,0.8,3.7c0,1.6-0.3,3.1-0.8,4.4
    c-0.7,1.7-1.9,3.1-3.4,4.1c-1.9,1.2-4.4,1.8-7.4,1.8h-1c-2.8,0-5.1-0.5-6.8-1.4c-1.5-0.8-2.5-1.9-3.1-3.3
    c-0.5-1.1-0.8-2.3-0.8-3.7c0-1.6,0.3-3.1,0.8-4.4c0.7-1.7,1.8-3.1,3.4-4c1.9-1.2,4.4-1.8,7.4-1.8H127.9z M130.7,7.8
    c-0.7-0.7-1.8-1.1-3.3-1.1c-2,0-3.4,0.6-4.2,1.8c-0.5,0.8-0.8,1.7-0.8,2.9c0,0.9,0.3,1.6,0.8,2.2c0.7,0.8,1.8,1.1,3.3,1.1
    c2,0,3.4-0.6,4.2-1.8c0.5-0.8,0.8-1.7,0.8-2.9C131.5,9.1,131.2,8.4,130.7,7.8z" />
                        <path class="st0"
                            d="M157.1,20.5l-7.1-10l-1.9,10h-6.7l3.3-17.9h6.9l6.8,9.6l1.8-9.6h6.6l-3.3,17.9H157.1z" />
                        <path class="st0" d="M183.6,14.9c0.3-0.2,0.6-0.4,0.7-0.6c0.2-0.2,0.3-0.4,0.4-0.6h-5l0.6-3.4h12.1l-1.9,10.1H186
    c-0.1-1-0.2-1.8-0.4-2.2c-0.6,0.6-1.3,1.1-2.1,1.5c-1.4,0.7-2.9,1-4.7,1h-0.4c-3.1,0-5.4-0.8-7.1-2.4c-0.7-0.7-1.3-1.6-1.7-2.6
    c-0.4-1-0.5-2.1-0.5-3.4c0-1.7,0.3-3.3,1-4.7c0.8-1.7,2-2.9,3.6-3.8c1.9-1.1,4.3-1.6,7.3-1.6h0.8c3,0,5.4,0.4,7.2,1.2
    c1.4,0.6,2.5,1.5,3.1,2.7c0.4,0.8,0.6,1.6,0.6,2.5c0,0.2,0,0.4,0,0.5h-7.2c-0.1-0.2-0.1-0.4-0.2-0.6c-0.1-0.2-0.3-0.3-0.5-0.5
    c-0.7-0.4-1.8-0.7-3.3-0.7c-1.9,0-3.3,0.5-4.2,1.6c-0.6,0.8-1,1.8-1,3.1c0,1,0.3,1.8,0.8,2.4c0.7,0.7,1.7,1.1,3.2,1.1
    C181.5,15.7,182.7,15.4,183.6,14.9z" />
                    </g>
                    <g id="blck_x5F_txt_1_">
                        <path d="M5.2,19.7L7.5,7.2H0.7l1-5.3h20.4l-1,5.3h-6.8L12,19.7H5.2z" />
                        <path d="M27.1,18.2c-1.4-1-2.3-2.3-2.7-4c-0.2-0.7-0.3-1.4-0.3-2.1c0-0.7,0.1-1.4,0.2-2l1.5-8.2h6.8l-1.5,8.2
    c-0.1,0.3-0.1,0.6-0.1,1c0,0.8,0.2,1.4,0.5,1.8c0.6,0.9,1.7,1.3,3.4,1.3H35c1.5,0,2.7-0.4,3.4-1.3c0.5-0.7,0.9-1.6,1.1-2.8
    l1.5-8.2h6.8l-1.5,8.2c-0.2,0.9-0.3,1.6-0.4,2.3s-0.4,1.3-0.6,1.9c-0.8,1.8-1.8,3.1-3.2,4C40.3,19.4,38,20,35,20h-0.7
    C31.2,20,28.8,19.4,27.1,18.2z" />
                        <path
                            d="M49.1,19.7l3.3-17.9h9.1L64,11l5.7-9.2h9.5l-3.3,17.9h-6.7l2-10.9l-6.9,10.9h-3.9L57.6,8.9l-2,10.9H49.1z" />
                        <path d="M90.6,1.8l-3.3,17.9h-6.8l3.3-17.9H90.6z" />
                        <path d="M99.6,14.3c0,0.2,0.1,0.4,0.3,0.5c0.4,0.5,1.3,0.7,2.6,0.7h0.1c1.3,0,2.3-0.2,2.8-0.5c0.2-0.1,0.4-0.3,0.5-0.4
    c0.1-0.2,0.1-0.3,0.1-0.5c0-0.4-0.2-0.7-0.5-0.9c-0.5-0.3-1.2-0.4-2.3-0.4l-1.7,0c-2.9-0.1-4.9-0.6-6.1-1.6c-0.6-0.5-1-1-1.2-1.7
    c-0.2-0.6-0.4-1.4-0.4-2.3c0-1.7,0.6-3,1.9-3.9c1.6-1.2,4.1-1.8,7.6-1.8h1.1c2.9,0,5.1,0.3,6.6,0.9c1.4,0.5,2.3,1.2,2.8,2.2
    c0.3,0.6,0.4,1.2,0.4,1.9c0,0.3,0,0.6-0.1,0.9h-7.2c0-0.4-0.1-0.8-0.4-1c-0.5-0.4-1.3-0.6-2.5-0.6h-0.2c-1.2,0-2.1,0.1-2.6,0.4
    c-0.2,0.1-0.3,0.2-0.4,0.4c-0.1,0.1-0.1,0.3-0.1,0.5c0,0.3,0.2,0.6,0.5,0.8c0.4,0.2,1.1,0.3,2.2,0.3l1.8,0c1.6,0,3,0.2,4,0.5
    s1.9,0.6,2.4,1.1c0.5,0.4,0.9,1,1.1,1.7c0.2,0.7,0.3,1.4,0.3,2.4c0,1.8-0.7,3.2-2,4.2c-1.7,1.3-4.6,1.9-8.6,1.9H102
    c-2.9,0-5.2-0.4-6.9-1.1c-1.4-0.6-2.3-1.4-2.7-2.5c-0.2-0.6-0.4-1.2-0.4-1.9c0-0.3,0-0.6,0.1-0.9h7.3
    C99.5,13.9,99.5,14.2,99.6,14.3z" />
                        <path d="M128.6,0.8c2.8,0,5.1,0.5,6.8,1.4c1.5,0.8,2.5,1.8,3.1,3.2c0.5,1.1,0.8,2.3,0.8,3.7c0,1.6-0.3,3.1-0.8,4.4
    c-0.7,1.7-1.9,3.1-3.4,4.1c-1.9,1.2-4.4,1.8-7.4,1.8h-1c-2.8,0-5.1-0.5-6.8-1.4c-1.5-0.8-2.5-1.9-3.1-3.3
    c-0.5-1.1-0.8-2.3-0.8-3.7c0-1.6,0.3-3.1,0.8-4.4c0.7-1.7,1.8-3.1,3.4-4c1.9-1.2,4.4-1.8,7.4-1.8H128.6z M131.4,7.1
    c-0.7-0.7-1.8-1.1-3.3-1.1c-2,0-3.4,0.6-4.2,1.8c-0.5,0.8-0.8,1.7-0.8,2.9c0,0.9,0.3,1.6,0.8,2.2c0.7,0.8,1.8,1.1,3.3,1.1
    c2,0,3.4-0.6,4.2-1.8c0.5-0.8,0.8-1.7,0.8-2.9C132.2,8.4,131.9,7.7,131.4,7.1z" />
                        <path
                            d="M157.8,19.7l-7.1-10l-1.9,10h-6.7l3.3-17.9h6.9l6.8,9.6l1.8-9.6h6.6l-3.3,17.9H157.8z" />
                        <path
                            d="M184.3,14.1c0.3-0.2,0.6-0.4,0.7-0.6c0.2-0.2,0.3-0.4,0.4-0.6h-5l0.6-3.4h12.1l-1.9,10.1h-4.6c-0.1-1-0.2-1.8-0.4-2.2
    c-0.6,0.6-1.3,1.1-2.1,1.5c-1.4,0.7-2.9,1-4.7,1h-0.4c-3.1,0-5.4-0.8-7.1-2.4c-0.7-0.7-1.3-1.6-1.7-2.6c-0.4-1-0.5-2.1-0.5-3.4
    c0-1.7,0.3-3.3,1-4.7c0.8-1.7,2-2.9,3.6-3.8c1.9-1.1,4.3-1.6,7.3-1.6h0.8c3,0,5.4,0.4,7.2,1.2c1.4,0.6,2.5,1.5,3.1,2.7
    c0.4,0.8,0.6,1.6,0.6,2.5c0,0.2,0,0.4,0,0.5h-7.2c-0.1-0.2-0.1-0.4-0.2-0.6c-0.1-0.2-0.3-0.3-0.5-0.5c-0.7-0.4-1.8-0.7-3.3-0.7
    c-1.9,0-3.3,0.5-4.2,1.6c-0.6,0.8-1,1.8-1,3.1c0,1,0.3,1.8,0.8,2.4c0.7,0.7,1.7,1.1,3.2,1.1C182.3,14.9,183.4,14.6,184.3,14.1z" />
                    </g>
                    <g id="white_x5F_txt_2_">
                        <path class="st1" d="M6.6,18.2L8.9,5.7H2.1l1-5.3h20.4l-1,5.3h-6.8l-2.3,12.6H6.6z" />
                        <path class="st1" d="M28.5,16.7c-1.4-1-2.3-2.3-2.7-4c-0.2-0.7-0.3-1.4-0.3-2.1c0-0.7,0.1-1.4,0.2-2l1.5-8.2h6.8l-1.5,8.2
    c-0.1,0.3-0.1,0.6-0.1,1c0,0.8,0.2,1.4,0.5,1.8c0.6,0.9,1.7,1.3,3.4,1.3h0.1c1.5,0,2.7-0.4,3.4-1.3c0.5-0.7,0.9-1.6,1.1-2.8
    l1.5-8.2h6.8l-1.5,8.2c-0.2,0.9-0.3,1.6-0.4,2.3c-0.1,0.6-0.4,1.3-0.6,1.9c-0.8,1.8-1.8,3.1-3.2,4c-1.8,1.2-4.1,1.8-7.1,1.8h-0.7
    C32.7,18.5,30.2,17.9,28.5,16.7z" />
                        <path class="st1"
                            d="M50.6,18.2l3.3-17.9h9.1l2.4,9.2l5.7-9.2h9.5l-3.3,17.9h-6.7l2-10.9l-6.9,10.9h-3.9L59.1,7.4l-2,10.9H50.6z" />
                        <path class="st1" d="M92.1,0.3l-3.3,17.9h-6.8l3.3-17.9H92.1z" />
                        <path class="st1" d="M101,12.8c0,0.2,0.1,0.4,0.3,0.5c0.4,0.5,1.3,0.7,2.6,0.7h0.1c1.3,0,2.3-0.2,2.8-0.5
    c0.2-0.1,0.4-0.3,0.5-0.4c0.1-0.2,0.1-0.3,0.1-0.5c0-0.4-0.2-0.7-0.5-0.9c-0.5-0.3-1.2-0.4-2.3-0.4l-1.7,0
    c-2.9-0.1-4.9-0.6-6.1-1.6c-0.6-0.5-1-1-1.2-1.7c-0.2-0.6-0.4-1.4-0.4-2.3c0-1.7,0.6-3,1.9-3.9c1.6-1.2,4.1-1.8,7.6-1.8h1.1
    c2.9,0,5.1,0.3,6.6,0.9c1.4,0.5,2.3,1.2,2.8,2.2c0.3,0.6,0.4,1.2,0.4,1.9c0,0.3,0,0.6-0.1,0.9h-7.2c0-0.4-0.1-0.8-0.4-1
    c-0.5-0.4-1.3-0.6-2.5-0.6h-0.2c-1.2,0-2.1,0.1-2.6,0.4c-0.2,0.1-0.3,0.2-0.4,0.4c-0.1,0.1-0.1,0.3-0.1,0.5
    c0,0.3,0.2,0.6,0.5,0.8c0.4,0.2,1.1,0.3,2.2,0.3l1.8,0c1.6,0,3,0.2,4,0.5c1,0.3,1.9,0.6,2.4,1.1c0.5,0.4,0.9,1,1.1,1.7
    c0.2,0.7,0.3,1.4,0.3,2.4c0,1.8-0.7,3.2-2,4.2c-1.7,1.3-4.6,1.9-8.6,1.9h-0.5c-2.9,0-5.2-0.4-6.9-1.1c-1.4-0.6-2.3-1.4-2.7-2.5
    c-0.2-0.6-0.4-1.2-0.4-1.9c0-0.3,0-0.6,0.1-0.9h7.3C100.9,12.4,101,12.6,101,12.8z" />
                        <path class="st1" d="M129.3,0c2.8,0,5.1,0.5,6.8,1.4c1.5,0.8,2.5,1.8,3.1,3.2c0.5,1.1,0.8,2.3,0.8,3.7c0,1.6-0.3,3.1-0.8,4.4
    c-0.7,1.7-1.9,3.1-3.4,4.1c-1.9,1.2-4.4,1.8-7.4,1.8h-1c-2.8,0-5.1-0.5-6.8-1.4c-1.5-0.8-2.5-1.9-3.1-3.3
    c-0.5-1.1-0.8-2.3-0.8-3.7c0-1.6,0.3-3.1,0.8-4.4c0.7-1.7,1.8-3.1,3.4-4c1.9-1.2,4.4-1.8,7.4-1.8H129.3z M132.1,6.3
    c-0.7-0.7-1.8-1.1-3.3-1.1c-2,0-3.4,0.6-4.2,1.8c-0.5,0.8-0.8,1.7-0.8,2.9c0,0.9,0.3,1.6,0.8,2.2c0.7,0.8,1.8,1.1,3.3,1.1
    c2,0,3.4-0.6,4.2-1.8c0.5-0.8,0.8-1.7,0.8-2.9C132.9,7.6,132.6,6.9,132.1,6.3z" />
                        <path class="st1"
                            d="M159.2,18.2l-7.1-10l-1.9,10h-6.7l3.3-17.9h6.9l6.8,9.6l1.8-9.6h6.6l-3.3,17.9H159.2z" />
                        <path class="st1" d="M185.7,12.6c0.3-0.2,0.6-0.4,0.7-0.6c0.2-0.2,0.3-0.4,0.4-0.6h-5l0.6-3.4h12.1l-1.9,10.1h-4.6
    c-0.1-1-0.2-1.8-0.4-2.2c-0.6,0.6-1.3,1.1-2.1,1.5c-1.4,0.7-2.9,1-4.7,1h-0.4c-3.1,0-5.4-0.8-7.1-2.4c-0.7-0.7-1.3-1.6-1.7-2.6
    c-0.4-1-0.5-2.1-0.5-3.4c0-1.7,0.3-3.3,1-4.7c0.8-1.7,2-2.9,3.6-3.8c1.9-1.1,4.3-1.6,7.3-1.6h0.8c3,0,5.4,0.4,7.2,1.2
    c1.4,0.6,2.5,1.5,3.1,2.7c0.4,0.8,0.6,1.6,0.6,2.5c0,0.2,0,0.4,0,0.5h-7.2c-0.1-0.2-0.1-0.4-0.2-0.6S187,6,186.8,5.8
    c-0.7-0.4-1.8-0.7-3.3-0.7c-1.9,0-3.3,0.5-4.2,1.6c-0.6,0.8-1,1.8-1,3.1c0,1,0.3,1.8,0.8,2.4c0.7,0.7,1.7,1.1,3.2,1.1
    C183.7,13.4,184.8,13.1,185.7,12.6z" />
                    </g>
                </g>
            </g>
        </svg>