<svg xmlns="http://www.w3.org/2000/svg" viewBox="0 0 179.4 63"><defs><style>.a{fill:#e49c01;}.b{fill:#e6e6e6;}</style></defs><title>logo</title><path class="a" d="M874,530l1.95-10h-5.24l.77-4h16.08l-.78,4H881.6l-1.93,10Z" transform="translate(-841 -480)"/><path class="a" d="M890.68,528.61a5,5,0,0,1-2.17-3.1,6.11,6.11,0,0,1-.21-1.65,7.32,7.32,0,0,1,.15-1.52l1.24-6.34h5.67l-1.15,6a3.29,3.29,0,0,0-.07.73,2,2,0,0,0,.4,1.33,3,3,0,0,0,2.57,1h0a3.27,3.27,0,0,0,2.6-1,4.32,4.32,0,0,0,.88-2.06l1.17-6h5.74l-1.22,6.34q-.2,1-.36,1.74a8.08,8.08,0,0,1-.51,1.45,7,7,0,0,1-2.58,3.08,10.5,10.5,0,0,1-5.75,1.39h-.56A10.56,10.56,0,0,1,890.68,528.61Z" transform="translate(-841 -480)"/><path class="a" d="M907.18,530l2.73-14h7.47l2,7.17,4.69-7.17h7.86l-2.71,14H923.7l1.66-8.51L919.71,530h-3.22l-2.31-8.51L912.52,530Z" transform="translate(-841 -480)"/><path class="a" d="M940,516l-2.71,14h-5.63l2.73-14Z" transform="translate(-841 -480)"/><path class="a" d="M946.16,525.31a.83.83,0,0,0,.25.41c.35.35,2,.28,2,.28h.19a5,5,0,0,0,2.29-.36.94.94,0,0,0,.39-.33.89.89,0,0,0,.1-.41.72.72,0,0,0-.43-.68,4.68,4.68,0,0,0-1.93-.32l-1.44,0q-3.55-.11-5-1.28a3.13,3.13,0,0,1-1-1.31,5.13,5.13,0,0,1-.29-1.79,3.61,3.61,0,0,1,1.55-3.08q2-1.39,6.31-1.4h.74s4.07.85,5.31,1.29a3.82,3.82,0,0,1,2.24,1.64,3.11,3.11,0,0,1,.33,1.46c0,.22,0,.61,0,.61H952a1.5,1.5,0,0,0-.31-.69,6.32,6.32,0,0,0-2-.31h-.2a4.93,4.93,0,0,0-2.09.3.7.7,0,0,0-.43.71.65.65,0,0,0,.43.6,4.75,4.75,0,0,0,1.8.26l1.45,0a17.14,17.14,0,0,1,3.29.36,5.27,5.27,0,0,1,2,.87,2.78,2.78,0,0,1,.94,1.29,5.92,5.92,0,0,1,.26,1.84,3.76,3.76,0,0,1-1.61,3.23c-1.4,1-3.74,1.5-7,1.5h-.12a15.61,15.61,0,0,1-5.73-.84,4,4,0,0,1-2.27-1.95,3.52,3.52,0,0,1-.31-1.47,4.35,4.35,0,0,1,.06-.74h6A2.43,2.43,0,0,0,946.16,525.31Z" transform="translate(-841 -480)"/><path class="a" d="M969.12,516a11.92,11.92,0,0,1,5.38,1,5.26,5.26,0,0,1,2.49,2.41,6.42,6.42,0,0,1,.6,2.8,8.28,8.28,0,0,1-.64,3.33,6.55,6.55,0,0,1-2.69,3.07,11.44,11.44,0,0,1-5.91,1.35h-.82a11.72,11.72,0,0,1-5.38-1,5.44,5.44,0,0,1-2.49-2.48,6.24,6.24,0,0,1-.6-2.8,7.89,7.89,0,0,1,.66-3.29,6.39,6.39,0,0,1,2.69-3A11.44,11.44,0,0,1,968.3,516Zm2.22,4.39a3.51,3.51,0,0,0-2.64-.84,3.83,3.83,0,0,0-3.36,1.39,3.68,3.68,0,0,0-.62,2.17,2.27,2.27,0,0,0,.62,1.64,3.48,3.48,0,0,0,2.63.86,3.85,3.85,0,0,0,3.37-1.37,3.73,3.73,0,0,0,.61-2.19A2.38,2.38,0,0,0,971.34,520.39Z" transform="translate(-841 -480)"/><path class="a" d="M991.08,530l-5.85-7.85L983.7,530h-5.49l2.73-14h5.7l5.57,7.49,1.47-7.49h5.47l-2.73,14Z" transform="translate(-841 -480)"/><path class="a" d="M1011.29,525.15a1.87,1.87,0,0,0,.59-.45,2.71,2.71,0,0,0,.29-.7h-4l.51-3h9.68l-1.49,9h-3.67a18.91,18.91,0,0,0-.33-2.26,6.06,6.06,0,0,1-1.68,1.15,28,28,0,0,1-3.77,1.11h-.34a7.83,7.83,0,0,1-5.61-1.83,5.17,5.17,0,0,1-1.33-2,7.17,7.17,0,0,1-.43-2.54,7.78,7.78,0,0,1,.78-3.52,6.64,6.64,0,0,1,2.87-2.9,12.24,12.24,0,0,1,5.79-1.22h.82a14.86,14.86,0,0,1,5.49.84,4.32,4.32,0,0,1,2.34,2,3.73,3.73,0,0,1,.46,1.85,2.87,2.87,0,0,1,0,.35h-5.55a3.36,3.36,0,0,0-.19-.63,1.38,1.38,0,0,0-.39-.36,5.18,5.18,0,0,0-2.63-.51,4.18,4.18,0,0,0-3.37,1.24,3.47,3.47,0,0,0-.77,2.31,2.5,2.5,0,0,0,.67,1.85,3.38,3.38,0,0,0,2.54.83A5.57,5.57,0,0,0,1011.29,525.15Z" transform="translate(-841 -480)"/><path d="M875,529l1.95-10h-5.24l.77-4h16.08l-.78,4H882.6l-1.93,10Z" transform="translate(-841 -480)"/><path d="M891.68,527.61a5,5,0,0,1-2.17-3.1,6.11,6.11,0,0,1-.21-1.65,7.32,7.32,0,0,1,.15-1.52l1.24-6.34h5.67l-1.15,6a3.29,3.29,0,0,0-.07.73,2,2,0,0,0,.4,1.33,3,3,0,0,0,2.57,1h0a3.27,3.27,0,0,0,2.6-1,4.32,4.32,0,0,0,.88-2.06l1.17-6h5.74l-1.22,6.34q-.2,1-.36,1.74a8.08,8.08,0,0,1-.51,1.45,7,7,0,0,1-2.58,3.08,10.5,10.5,0,0,1-5.75,1.39h-.56A10.56,10.56,0,0,1,891.68,527.61Z" transform="translate(-841 -480)"/><path d="M908.18,529l2.73-14h7.47l2,7.17,4.69-7.17h7.86l-2.71,14H924.7l1.66-8.51L920.71,529h-3.22l-2.31-8.51L913.52,529Z" transform="translate(-841 -480)"/><path d="M941,515l-2.71,14h-5.63l2.73-14Z" transform="translate(-841 -480)"/><path d="M947.16,524.31a.83.83,0,0,0,.25.41c.35.35,2,.28,2,.28h.19a5,5,0,0,0,2.29-.36.94.94,0,0,0,.39-.33.89.89,0,0,0,.1-.41.72.72,0,0,0-.43-.68,4.68,4.68,0,0,0-1.93-.32l-1.44,0q-3.55-.11-5-1.28a3.13,3.13,0,0,1-1-1.31,5.13,5.13,0,0,1-.29-1.79,3.61,3.61,0,0,1,1.55-3.08q2-1.39,6.31-1.4h.74s4.07.85,5.31,1.29a3.82,3.82,0,0,1,2.24,1.64,3.11,3.11,0,0,1,.33,1.46c0,.22,0,.61,0,.61H953a1.5,1.5,0,0,0-.31-.69,6.32,6.32,0,0,0-2-.31h-.2a4.93,4.93,0,0,0-2.09.3.7.7,0,0,0-.43.71.65.65,0,0,0,.43.6,4.75,4.75,0,0,0,1.8.26l1.45,0a17.14,17.14,0,0,1,3.29.36,5.27,5.27,0,0,1,2,.87,2.78,2.78,0,0,1,.94,1.29,5.92,5.92,0,0,1,.26,1.84,3.76,3.76,0,0,1-1.61,3.23c-1.4,1-3.74,1.5-7,1.5h-.12a15.61,15.61,0,0,1-5.73-.84,4,4,0,0,1-2.27-1.95,3.52,3.52,0,0,1-.31-1.47,4.35,4.35,0,0,1,.06-.74h6A2.43,2.43,0,0,0,947.16,524.31Z" transform="translate(-841 -480)"/><path d="M970.12,515a11.92,11.92,0,0,1,5.38,1,5.26,5.26,0,0,1,2.49,2.41,6.42,6.42,0,0,1,.6,2.8,8.28,8.28,0,0,1-.64,3.33,6.55,6.55,0,0,1-2.69,3.07,11.44,11.44,0,0,1-5.91,1.35h-.82a11.72,11.72,0,0,1-5.38-1,5.44,5.44,0,0,1-2.49-2.48,6.24,6.24,0,0,1-.6-2.8,7.89,7.89,0,0,1,.66-3.29,6.39,6.39,0,0,1,2.69-3A11.44,11.44,0,0,1,969.3,515Zm2.22,4.39a3.51,3.51,0,0,0-2.64-.84,3.83,3.83,0,0,0-3.36,1.39,3.68,3.68,0,0,0-.62,2.17,2.27,2.27,0,0,0,.62,1.64,3.48,3.48,0,0,0,2.63.86,3.85,3.85,0,0,0,3.37-1.37,3.73,3.73,0,0,0,.61-2.19A2.38,2.38,0,0,0,972.34,519.39Z" transform="translate(-841 -480)"/><path d="M992.08,529l-5.85-7.85L984.7,529h-5.49l2.73-14h5.7l5.57,7.49,1.47-7.49h5.47l-2.73,14Z" transform="translate(-841 -480)"/><path d="M1012.29,524.15a1.87,1.87,0,0,0,.59-.45,2.71,2.71,0,0,0,.29-.7h-4l.51-3h9.68l-1.49,9h-3.67a18.91,18.91,0,0,0-.33-2.26,6.06,6.06,0,0,1-1.68,1.15,28,28,0,0,1-3.77,1.11h-.34a7.83,7.83,0,0,1-5.61-1.83,5.17,5.17,0,0,1-1.33-2,7.17,7.17,0,0,1-.43-2.54,7.78,7.78,0,0,1,.78-3.52,6.64,6.64,0,0,1,2.87-2.9,12.24,12.24,0,0,1,5.79-1.22h.82a14.86,14.86,0,0,1,5.49.84,4.32,4.32,0,0,1,2.34,2,3.73,3.73,0,0,1,.46,1.85,2.87,2.87,0,0,1,0,.35h-5.55a3.36,3.36,0,0,0-.19-.63,1.38,1.38,0,0,0-.39-.36,5.18,5.18,0,0,0-2.63-.51,4.18,4.18,0,0,0-3.37,1.24,3.47,3.47,0,0,0-.77,2.31,2.5,2.5,0,0,0,.67,1.85,3.38,3.38,0,0,0,2.54.83A5.57,5.57,0,0,0,1012.29,524.15Z" transform="translate(-841 -480)"/><path class="b" d="M876,528l1.95-10h-5.24l.77-4h16.08l-.78,4H883.6l-1.93,10Z" transform="translate(-841 -480)"/><path class="b" d="M892.68,526.61a5,5,0,0,1-2.17-3.1,6.11,6.11,0,0,1-.21-1.65,7.32,7.32,0,0,1,.15-1.52l1.24-6.34h5.67l-1.15,6a3.29,3.29,0,0,0-.07.73,2,2,0,0,0,.4,1.33,3,3,0,0,0,2.57,1h0a3.27,3.27,0,0,0,2.6-1,4.32,4.32,0,0,0,.88-2.06l1.17-6h5.74l-1.22,6.34q-.2,1-.36,1.74a8.08,8.08,0,0,1-.51,1.45,7,7,0,0,1-2.58,3.08,10.5,10.5,0,0,1-5.75,1.39h-.56A10.56,10.56,0,0,1,892.68,526.61Z" transform="translate(-841 -480)"/><path class="b" d="M909.18,528l2.73-14h7.47l2,7.17,4.69-7.17h7.86l-2.71,14H925.7l1.66-8.51L921.71,528h-3.22l-2.31-8.51L914.52,528Z" transform="translate(-841 -480)"/><path class="b" d="M942,514l-2.71,14h-5.63l2.73-14Z" transform="translate(-841 -480)"/><path class="b" d="M948.16,523.31a.83.83,0,0,0,.25.41c.35.35,2,.28,2,.28h.19a5,5,0,0,0,2.29-.36.94.94,0,0,0,.39-.33.89.89,0,0,0,.1-.41.72.72,0,0,0-.43-.68,4.68,4.68,0,0,0-1.93-.32l-1.44,0q-3.55-.11-5-1.28a3.13,3.13,0,0,1-1-1.31,5.13,5.13,0,0,1-.29-1.79,3.61,3.61,0,0,1,1.55-3.08q2-1.39,6.31-1.4h.74s4.07.85,5.31,1.29a3.82,3.82,0,0,1,2.24,1.64,3.11,3.11,0,0,1,.33,1.46c0,.22,0,.61,0,.61H954a1.5,1.5,0,0,0-.31-.69,6.32,6.32,0,0,0-2-.31h-.2a4.93,4.93,0,0,0-2.09.3.7.7,0,0,0-.43.71.65.65,0,0,0,.43.6,4.75,4.75,0,0,0,1.8.26l1.45,0a17.14,17.14,0,0,1,3.29.36,5.27,5.27,0,0,1,2,.87,2.78,2.78,0,0,1,.94,1.29,5.92,5.92,0,0,1,.26,1.84,3.76,3.76,0,0,1-1.61,3.23c-1.4,1-3.74,1.5-7,1.5h-.12a15.61,15.61,0,0,1-5.73-.84,4,4,0,0,1-2.27-1.95,3.52,3.52,0,0,1-.31-1.47,4.35,4.35,0,0,1,.06-.74h6A2.43,2.43,0,0,0,948.16,523.31Z" transform="translate(-841 -480)"/><path class="b" d="M971.12,514a11.92,11.92,0,0,1,5.38,1,5.26,5.26,0,0,1,2.49,2.41,6.42,6.42,0,0,1,.6,2.8,8.28,8.28,0,0,1-.64,3.33,6.55,6.55,0,0,1-2.69,3.07,11.44,11.44,0,0,1-5.91,1.35h-.82a11.72,11.72,0,0,1-5.38-1,5.44,5.44,0,0,1-2.49-2.48,6.24,6.24,0,0,1-.6-2.8,7.89,7.89,0,0,1,.66-3.29,6.39,6.39,0,0,1,2.69-3A11.44,11.44,0,0,1,970.3,514Zm2.22,4.39a3.51,3.51,0,0,0-2.64-.84,3.83,3.83,0,0,0-3.36,1.39,3.68,3.68,0,0,0-.62,2.17,2.27,2.27,0,0,0,.62,1.64,3.48,3.48,0,0,0,2.63.86,3.85,3.85,0,0,0,3.37-1.37,3.73,3.73,0,0,0,.61-2.19A2.38,2.38,0,0,0,973.34,518.39Z" transform="translate(-841 -480)"/><path class="b" d="M993.08,528l-5.85-7.85L985.7,528h-5.49l2.73-14h5.7l5.57,7.49,1.47-7.49h5.47l-2.73,14Z" transform="translate(-841 -480)"/><path class="b" d="M1013.29,523.15a1.87,1.87,0,0,0,.59-.45,2.71,2.71,0,0,0,.29-.7h-4l.51-3h9.68l-1.49,9h-3.67a18.91,18.91,0,0,0-.33-2.26,6.06,6.06,0,0,1-1.68,1.15,28,28,0,0,1-3.77,1.11h-.34a7.83,7.83,0,0,1-5.61-1.83,5.17,5.17,0,0,1-1.33-2,7.17,7.17,0,0,1-.43-2.54,7.78,7.78,0,0,1,.78-3.52,6.64,6.64,0,0,1,2.87-2.9,12.24,12.24,0,0,1,5.79-1.22h.82a14.86,14.86,0,0,1,5.49.84,4.32,4.32,0,0,1,2.34,2,3.73,3.73,0,0,1,.46,1.85,2.87,2.87,0,0,1,0,.35h-5.55a3.36,3.36,0,0,0-.19-.63,1.38,1.38,0,0,0-.39-.36,5.18,5.18,0,0,0-2.63-.51,4.18,4.18,0,0,0-3.37,1.24,3.47,3.47,0,0,0-.77,2.31,2.5,2.5,0,0,0,.67,1.85,3.38,3.38,0,0,0,2.54.83A5.57,5.57,0,0,0,1013.29,523.15Z" transform="translate(-841 -480)"/><polygon class="a" points="69.32 63 60.32 54 51.84 54 60.84 63 69.32 63"/><polygon class="a" points="124.32 63 115.32 54 106.84 54 115.84 63 124.32 63"/><polygon class="a" points="0 0 0 2.44 26 28.44 26 21 27.04 21 6.04 0 0 0"/><polygon class="a" points="52.72 0 73.72 21 82.2 21 61.2 0 52.72 0"/><polygon class="a" points="0 49.36 0 57.84 5.16 63 13.64 63 0 49.36"/></svg>