<svg xmlns="http://www.w3.org/2000/svg" xmlns:xlink="http://www.w3.org/1999/xlink" viewBox="0 0 473.49 124.2"><defs><style>.cls-1{fill:none;}.cls-2{clip-path:url(#clip-path);}.cls-3{fill:#fff;}.cls-4,.cls-5{fill:#e6e6e6;}.cls-5{font-size:32px;font-family:DrukTextWide-SuperItalic, Druk Text Wide;font-style:italic;}</style><clipPath id="clip-path"><rect id="logo__bg" class="cls-1" x="63.49" y="6.35" width="410" height="109"/></clipPath></defs><title>logo_v1</title><g id="Layer_2" data-name="Layer 2"><g id="Layer_1-2" data-name="Layer 1"><g class="cls-2"><g id="logo__bg-2" data-name="logo__bg"><rect x="63.99" y="6.85" width="409" height="108"/><path class="cls-3" d="M472.49,7.35v107h-408V7.35h408m1-1h-410v109h410V6.35Z"/></g><g id="stripe"><polygon class="cls-4" points="233.45 124.2 223.71 122.95 105 4.24 109.24 0 233.45 124.2"/></g><g id="stripe-2" data-name="stripe"><polygon class="cls-4" points="240.95 76.7 233.31 77.55 160 4.24 164.24 0 240.95 76.7"/></g><g id="stripe-3" data-name="stripe"><polygon class="cls-4" points="178.45 124.2 168.71 122.95 50 4.24 54.24 0 178.45 124.2"/></g><g id="stripe-4" data-name="stripe"><polygon class="cls-4" points="128.45 124.2 118.7 122.95 0 4.24 4.24 0 128.45 124.2"/></g><g id="txt-bg"><rect x="139.83" y="39.53" width="276.68" height="42.65"/></g><text class="cls-5" transform="translate(146.7 69.62)">TUMISONG</text></g></g></g></svg>