<svg xmlns="http://www.w3.org/2000/svg" viewBox="0 0 179.4 63"><defs><style>.a{fill:#e49c01;}.b{fill:#e6e6e6;}</style></defs><title>tlogo</title><path class="a" d="M33,50l1.95-10H29.67l.77-4H46.52l-.78,4H40.6L38.67,50Z"/><path class="a" d="M49.68,48.61a5,5,0,0,1-2.17-3.1,6.11,6.11,0,0,1-.21-1.65,7.32,7.32,0,0,1,.15-1.52L48.69,36h5.67l-1.15,6a3.29,3.29,0,0,0-.07.73,2,2,0,0,0,.4,1.33,3,3,0,0,0,2.57,1h0a3.27,3.27,0,0,0,2.6-1A4.32,4.32,0,0,0,59.64,42l1.17-6h5.74l-1.22,6.34q-.19,1-.36,1.74a8.08,8.08,0,0,1-.51,1.45,7,7,0,0,1-2.58,3.08A10.5,10.5,0,0,1,56.13,50h-.56A10.56,10.56,0,0,1,49.68,48.61Z"/><path class="a" d="M66.18,50l2.73-14h7.47l2,7.17L83.08,36h7.86L88.23,50H82.7l1.66-8.51L78.71,50H75.49l-2.31-8.51L71.52,50Z"/><path class="a" d="M99,36,96.28,50H90.65l2.73-14Z"/><path class="a" d="M105.16,45.31a.83.83,0,0,0,.25.41c.35.35,2,.28,2,.28h.19a5,5,0,0,0,2.29-.36.94.94,0,0,0,.39-.33.89.89,0,0,0,.1-.41.72.72,0,0,0-.43-.68,4.68,4.68,0,0,0-1.93-.32l-1.44,0q-3.56-.11-5.05-1.28a3.13,3.13,0,0,1-1-1.31,5.13,5.13,0,0,1-.29-1.79,3.61,3.61,0,0,1,1.55-3.08q2-1.4,6.31-1.4h.74s4.07.85,5.31,1.29a3.82,3.82,0,0,1,2.24,1.64,3.11,3.11,0,0,1,.33,1.46c0,.22,0,.61,0,.61H111a1.5,1.5,0,0,0-.31-.69,6.32,6.32,0,0,0-2-.31h-.2a4.93,4.93,0,0,0-2.09.3.7.7,0,0,0-.43.71.65.65,0,0,0,.43.6,4.75,4.75,0,0,0,1.8.26l1.45,0a17.14,17.14,0,0,1,3.29.36,5.27,5.27,0,0,1,2,.87,2.78,2.78,0,0,1,.94,1.29,5.92,5.92,0,0,1,.26,1.84,3.76,3.76,0,0,1-1.61,3.23c-1.4,1-3.74,1.5-7,1.5h-.12a15.61,15.61,0,0,1-5.73-.84,4,4,0,0,1-2.27-1.95A3.52,3.52,0,0,1,99,45.74a4.35,4.35,0,0,1,.06-.74h6A2.43,2.43,0,0,0,105.16,45.31Z"/><path class="a" d="M128.12,36a11.92,11.92,0,0,1,5.38,1A5.26,5.26,0,0,1,136,39.45a6.42,6.42,0,0,1,.6,2.8,8.28,8.28,0,0,1-.64,3.33,6.55,6.55,0,0,1-2.69,3.07A11.44,11.44,0,0,1,127.35,50h-.82a11.72,11.72,0,0,1-5.38-1,5.44,5.44,0,0,1-2.49-2.48,6.24,6.24,0,0,1-.6-2.8,7.89,7.89,0,0,1,.66-3.29,6.39,6.39,0,0,1,2.69-3.05A11.44,11.44,0,0,1,127.3,36Zm2.22,4.39a3.51,3.51,0,0,0-2.64-.84,3.83,3.83,0,0,0-3.36,1.39,3.68,3.68,0,0,0-.62,2.17,2.27,2.27,0,0,0,.62,1.64,3.48,3.48,0,0,0,2.63.86,3.85,3.85,0,0,0,3.37-1.37,3.73,3.73,0,0,0,.61-2.19A2.38,2.38,0,0,0,130.34,40.39Z"/><path class="a" d="M150.08,50l-5.85-7.85L142.7,50h-5.49l2.73-14h5.7l5.57,7.49L152.68,36h5.47l-2.73,14Z"/><path class="a" d="M170.29,45.15a1.87,1.87,0,0,0,.59-.45,2.71,2.71,0,0,0,.29-.7h-4l.51-3h9.68l-1.49,9h-3.67a18.91,18.91,0,0,0-.33-2.26,6.06,6.06,0,0,1-1.68,1.15A28,28,0,0,1,166.46,50h-.34a7.83,7.83,0,0,1-5.61-1.83,5.17,5.17,0,0,1-1.33-2,7.17,7.17,0,0,1-.43-2.54,7.78,7.78,0,0,1,.78-3.52,6.64,6.64,0,0,1,2.87-2.9A12.24,12.24,0,0,1,168.19,36H169a14.86,14.86,0,0,1,5.49.84,4.32,4.32,0,0,1,2.34,2,3.73,3.73,0,0,1,.46,1.85,2.87,2.87,0,0,1,0,.35h-5.55a3.36,3.36,0,0,0-.19-.63,1.38,1.38,0,0,0-.39-.36,5.18,5.18,0,0,0-2.63-.51,4.18,4.18,0,0,0-3.37,1.24,3.47,3.47,0,0,0-.77,2.31,2.5,2.5,0,0,0,.67,1.85,3.38,3.38,0,0,0,2.54.83A5.57,5.57,0,0,0,170.29,45.15Z"/><path d="M34,49l1.95-10H30.67l.77-4H47.52l-.78,4H41.6L39.67,49Z"/><path d="M50.68,47.61a5,5,0,0,1-2.17-3.1,6.11,6.11,0,0,1-.21-1.65,7.32,7.32,0,0,1,.15-1.52L49.69,35h5.67l-1.15,6a3.29,3.29,0,0,0-.07.73,2,2,0,0,0,.4,1.33,3,3,0,0,0,2.57,1h0a3.27,3.27,0,0,0,2.6-1A4.32,4.32,0,0,0,60.64,41l1.17-6h5.74l-1.22,6.34q-.19,1-.36,1.74a8.08,8.08,0,0,1-.51,1.45,7,7,0,0,1-2.58,3.08A10.5,10.5,0,0,1,57.13,49h-.56A10.56,10.56,0,0,1,50.68,47.61Z"/><path d="M67.18,49l2.73-14h7.47l2,7.17L84.08,35h7.86L89.23,49H83.7l1.66-8.51L79.71,49H76.49l-2.31-8.51L72.52,49Z"/><path d="M100,35,97.28,49H91.65l2.73-14Z"/><path d="M106.16,44.31a.83.83,0,0,0,.25.41c.35.35,2,.28,2,.28h.19a5,5,0,0,0,2.29-.36.94.94,0,0,0,.39-.33.89.89,0,0,0,.1-.41.72.72,0,0,0-.43-.68,4.68,4.68,0,0,0-1.93-.32l-1.44,0q-3.56-.11-5.05-1.28a3.13,3.13,0,0,1-1-1.31,5.13,5.13,0,0,1-.29-1.79,3.61,3.61,0,0,1,1.55-3.08q2-1.4,6.31-1.4h.74s4.07.85,5.31,1.29a3.82,3.82,0,0,1,2.24,1.64,3.11,3.11,0,0,1,.33,1.46c0,.22,0,.61,0,.61H112a1.5,1.5,0,0,0-.31-.69,6.32,6.32,0,0,0-2-.31h-.2a4.93,4.93,0,0,0-2.09.3.7.7,0,0,0-.43.71.65.65,0,0,0,.43.6,4.75,4.75,0,0,0,1.8.26l1.45,0a17.14,17.14,0,0,1,3.29.36,5.27,5.27,0,0,1,2,.87,2.78,2.78,0,0,1,.94,1.29,5.92,5.92,0,0,1,.26,1.84,3.76,3.76,0,0,1-1.61,3.23c-1.4,1-3.74,1.5-7,1.5h-.12a15.61,15.61,0,0,1-5.73-.84,4,4,0,0,1-2.27-1.95,3.52,3.52,0,0,1-.31-1.47,4.35,4.35,0,0,1,.06-.74h6A2.43,2.43,0,0,0,106.16,44.31Z"/><path d="M129.12,35a11.92,11.92,0,0,1,5.38,1A5.26,5.26,0,0,1,137,38.45a6.42,6.42,0,0,1,.6,2.8,8.28,8.28,0,0,1-.64,3.33,6.55,6.55,0,0,1-2.69,3.07A11.44,11.44,0,0,1,128.35,49h-.82a11.72,11.72,0,0,1-5.38-1,5.44,5.44,0,0,1-2.49-2.48,6.24,6.24,0,0,1-.6-2.8,7.89,7.89,0,0,1,.66-3.29,6.39,6.39,0,0,1,2.69-3.05A11.44,11.44,0,0,1,128.3,35Zm2.22,4.39a3.51,3.51,0,0,0-2.64-.84,3.83,3.83,0,0,0-3.36,1.39,3.68,3.68,0,0,0-.62,2.17,2.27,2.27,0,0,0,.62,1.64,3.48,3.48,0,0,0,2.63.86,3.85,3.85,0,0,0,3.37-1.37,3.73,3.73,0,0,0,.61-2.19A2.38,2.38,0,0,0,131.34,39.39Z"/><path d="M151.08,49l-5.85-7.85L143.7,49h-5.49l2.73-14h5.7l5.57,7.49L153.68,35h5.47l-2.73,14Z"/><path d="M171.29,44.15a1.87,1.87,0,0,0,.59-.45,2.71,2.71,0,0,0,.29-.7h-4l.51-3h9.68l-1.49,9h-3.67a18.91,18.91,0,0,0-.33-2.26,6.06,6.06,0,0,1-1.68,1.15A28,28,0,0,1,167.46,49h-.34a7.83,7.83,0,0,1-5.61-1.83,5.17,5.17,0,0,1-1.33-2,7.17,7.17,0,0,1-.43-2.54,7.78,7.78,0,0,1,.78-3.52,6.64,6.64,0,0,1,2.87-2.9A12.24,12.24,0,0,1,169.19,35H170a14.86,14.86,0,0,1,5.49.84,4.32,4.32,0,0,1,2.34,2,3.73,3.73,0,0,1,.46,1.85,2.87,2.87,0,0,1,0,.35h-5.55a3.36,3.36,0,0,0-.19-.63,1.38,1.38,0,0,0-.39-.36,5.18,5.18,0,0,0-2.63-.51,4.18,4.18,0,0,0-3.37,1.24,3.47,3.47,0,0,0-.77,2.31,2.5,2.5,0,0,0,.67,1.85,3.38,3.38,0,0,0,2.54.83A5.57,5.57,0,0,0,171.29,44.15Z"/><path class="b" d="M35,48l1.95-10H31.67l.77-4H48.52l-.78,4H42.6L40.67,48Z"/><path class="b" d="M51.68,46.61a5,5,0,0,1-2.17-3.1,6.11,6.11,0,0,1-.21-1.65,7.32,7.32,0,0,1,.15-1.52L50.69,34h5.67l-1.15,6a3.29,3.29,0,0,0-.07.73,2,2,0,0,0,.4,1.33,3,3,0,0,0,2.57,1h0a3.27,3.27,0,0,0,2.6-1A4.32,4.32,0,0,0,61.64,40l1.17-6h5.74l-1.22,6.34q-.19,1-.36,1.74a8.08,8.08,0,0,1-.51,1.45,7,7,0,0,1-2.58,3.08A10.5,10.5,0,0,1,58.13,48h-.56A10.56,10.56,0,0,1,51.68,46.61Z"/><path class="b" d="M68.18,48l2.73-14h7.47l2,7.17L85.08,34h7.86L90.23,48H84.7l1.66-8.51L80.71,48H77.49l-2.31-8.51L73.52,48Z"/><path class="b" d="M101,34,98.28,48H92.65l2.73-14Z"/><path class="b" d="M107.16,43.31a.83.83,0,0,0,.25.41c.35.35,2,.28,2,.28h.19a5,5,0,0,0,2.29-.36.94.94,0,0,0,.39-.33.89.89,0,0,0,.1-.41.72.72,0,0,0-.43-.68,4.68,4.68,0,0,0-1.93-.32l-1.44,0q-3.56-.11-5.05-1.28a3.13,3.13,0,0,1-1-1.31,5.13,5.13,0,0,1-.29-1.79,3.61,3.61,0,0,1,1.55-3.08q2-1.4,6.31-1.4h.74s4.07.85,5.31,1.29a3.82,3.82,0,0,1,2.24,1.64,3.11,3.11,0,0,1,.33,1.46c0,.22,0,.61,0,.61H113a1.5,1.5,0,0,0-.31-.69,6.32,6.32,0,0,0-2-.31h-.2a4.93,4.93,0,0,0-2.09.3.7.7,0,0,0-.43.71.65.65,0,0,0,.43.6,4.75,4.75,0,0,0,1.8.26l1.45,0a17.14,17.14,0,0,1,3.29.36,5.27,5.27,0,0,1,2,.87,2.78,2.78,0,0,1,.94,1.29,5.92,5.92,0,0,1,.26,1.84,3.76,3.76,0,0,1-1.61,3.23c-1.4,1-3.74,1.5-7,1.5h-.12a15.61,15.61,0,0,1-5.73-.84,4,4,0,0,1-2.27-1.95,3.52,3.52,0,0,1-.31-1.47,4.35,4.35,0,0,1,.06-.74h6A2.43,2.43,0,0,0,107.16,43.31Z"/><path class="b" d="M130.12,34a11.92,11.92,0,0,1,5.38,1A5.26,5.26,0,0,1,138,37.45a6.42,6.42,0,0,1,.6,2.8,8.28,8.28,0,0,1-.64,3.33,6.55,6.55,0,0,1-2.69,3.07A11.44,11.44,0,0,1,129.35,48h-.82a11.72,11.72,0,0,1-5.38-1,5.44,5.44,0,0,1-2.49-2.48,6.24,6.24,0,0,1-.6-2.8,7.89,7.89,0,0,1,.66-3.29,6.39,6.39,0,0,1,2.69-3.05A11.44,11.44,0,0,1,129.3,34Zm2.22,4.39a3.51,3.51,0,0,0-2.64-.84,3.83,3.83,0,0,0-3.36,1.39,3.68,3.68,0,0,0-.62,2.17,2.27,2.27,0,0,0,.62,1.64,3.48,3.48,0,0,0,2.63.86,3.85,3.85,0,0,0,3.37-1.37,3.73,3.73,0,0,0,.61-2.19A2.38,2.38,0,0,0,132.34,38.39Z"/><path class="b" d="M152.08,48l-5.85-7.85L144.7,48h-5.49l2.73-14h5.7l5.57,7.49L154.68,34h5.47l-2.73,14Z"/><path class="b" d="M172.29,43.15a1.87,1.87,0,0,0,.59-.45,2.71,2.71,0,0,0,.29-.7h-4l.51-3h9.68l-1.49,9h-3.67a18.91,18.91,0,0,0-.33-2.26,6.06,6.06,0,0,1-1.68,1.15A28,28,0,0,1,168.46,48h-.34a7.83,7.83,0,0,1-5.61-1.83,5.17,5.17,0,0,1-1.33-2,7.17,7.17,0,0,1-.43-2.54,7.78,7.78,0,0,1,.78-3.52,6.64,6.64,0,0,1,2.87-2.9A12.24,12.24,0,0,1,170.19,34H171a14.86,14.86,0,0,1,5.49.84,4.32,4.32,0,0,1,2.34,2,3.73,3.73,0,0,1,.46,1.85,2.87,2.87,0,0,1,0,.35h-5.55a3.36,3.36,0,0,0-.19-.63,1.38,1.38,0,0,0-.39-.36,5.18,5.18,0,0,0-2.63-.51,4.18,4.18,0,0,0-3.37,1.24,3.47,3.47,0,0,0-.77,2.31,2.5,2.5,0,0,0,.67,1.85,3.38,3.38,0,0,0,2.54.83A5.57,5.57,0,0,0,172.29,43.15Z"/><polygon class="a" points="69.32 63 60.32 54 51.84 54 60.84 63 69.32 63"/><polygon class="a" points="124.32 63 115.32 54 106.84 54 115.84 63 124.32 63"/><polygon class="a" points="0 0 0 2.44 26 28.44 26 21 27.04 21 6.04 0 0 0"/><polygon class="a" points="52.72 0 73.72 21 82.2 21 61.2 0 52.72 0"/><polygon class="a" points="0 49.36 0 57.84 5.16 63 13.64 63 0 49.36"/></svg>