<svg xmlns="http://www.w3.org/2000/svg" xmlns:xlink="http://www.w3.org/1999/xlink" viewBox="0 0 304.81 96.61"><defs><style>.cls-1{fill:none;}.cls-2{clip-path:url(#clip-path);}.cls-3{fill:#e6e6e6;}.cls-4{fill:#feae01;}</style><clipPath id="clip-path"><rect class="cls-1" x="44.53" y="4.61" width="288" height="78"/></clipPath></defs><title>Asset 2</title><g id="Layer_2" data-name="Layer 2"><g id="artwork"><g class="cls-2"><g id="Stripes"><g id="stripe"><polygon points="127.36 96.61 120.41 95.66 35.69 6.44 38.71 3.25 127.36 96.61"/></g><g id="stripe-2" data-name="stripe"><polygon points="166.62 96.61 159.66 95.66 74.94 6.44 77.97 3.25 166.62 96.61"/></g><g id="stripe-3" data-name="stripe"><polygon points="171.97 60.91 166.52 61.54 114.19 6.44 117.22 3.25 171.97 60.91"/></g><g id="stripe-4" data-name="stripe"><polygon points="167.33 95.86 160.38 94.91 75.65 5.69 78.68 2.5 167.33 95.86"/></g><g id="stripe-5" data-name="stripe"><polygon points="172.68 60.16 167.23 60.79 114.91 5.69 117.94 2.5 172.68 60.16"/></g><g id="stripe-6" data-name="stripe"><polygon points="128.07 95.86 121.12 94.91 36.4 5.69 39.43 2.5 128.07 95.86"/></g><g id="stripe-7" data-name="stripe"><polygon class="cls-3" points="168.76 94.35 161.8 93.41 77.08 4.19 80.11 1 168.76 94.35"/></g><g id="stripe-8" data-name="stripe"><polygon class="cls-3" points="174.11 58.65 168.66 59.29 116.34 4.19 119.36 1 174.11 58.65"/></g><g id="stripe-9" data-name="stripe"><polygon class="cls-3" points="129.5 94.35 122.55 93.41 37.83 4.19 40.85 1 129.5 94.35"/></g><g id="stripe-10" data-name="stripe"><polygon points="91.67 96.61 84.72 95.66 0 6.44 3.03 3.25 91.67 96.61"/></g><g id="stripe-11" data-name="stripe"><polygon points="92.39 95.86 85.44 94.91 0.71 5.69 3.74 2.5 92.39 95.86"/></g><g id="stripe-12" data-name="stripe"><polygon class="cls-3" points="93.82 94.35 86.86 93.41 2.14 4.19 5.17 1 93.82 94.35"/></g><g id="stripe-13" data-name="stripe"><polygon class="cls-3" points="168.76 94.35 161.8 93.41 77.08 4.19 80.11 1 168.76 94.35"/></g><g id="stripe-14" data-name="stripe"><polygon class="cls-3" points="174.11 58.65 168.66 59.29 116.34 4.19 119.36 1 174.11 58.65"/></g><g id="stripe-15" data-name="stripe"><polygon class="cls-3" points="129.5 94.35 122.55 93.41 37.83 4.19 40.85 1 129.5 94.35"/></g><g id="stripe-16" data-name="stripe"><polygon class="cls-3" points="93.82 94.35 86.86 93.41 2.14 4.19 5.17 1 93.82 94.35"/></g></g><g id="Stripes-2" data-name="Stripes"><g id="stripe-17" data-name="stripe"><polygon points="131.36 95.61 124.41 94.66 39.69 5.44 42.71 2.25 131.36 95.61"/></g><g id="stripe-18" data-name="stripe"><polygon points="170.62 95.61 163.66 94.66 78.94 5.44 81.97 2.25 170.62 95.61"/></g><g id="stripe-19" data-name="stripe"><polygon points="175.97 59.91 170.52 60.54 118.19 5.44 121.22 2.25 175.97 59.91"/></g><g id="stripe-20" data-name="stripe"><polygon points="171.33 94.86 164.38 93.91 79.65 4.69 82.68 1.5 171.33 94.86"/></g><g id="stripe-21" data-name="stripe"><polygon points="176.68 59.16 171.23 59.79 118.91 4.69 121.94 1.5 176.68 59.16"/></g><g id="stripe-22" data-name="stripe"><polygon points="132.07 94.86 125.12 93.91 40.4 4.69 43.43 1.5 132.07 94.86"/></g><g id="stripe-23" data-name="stripe"><polygon class="cls-3" points="172.76 93.35 165.8 92.41 81.08 3.19 84.11 0 172.76 93.35"/></g><g id="stripe-24" data-name="stripe"><polygon class="cls-3" points="178.11 57.65 172.66 58.29 120.34 3.19 123.36 0 178.11 57.65"/></g><g id="stripe-25" data-name="stripe"><polygon class="cls-3" points="133.5 93.35 126.55 92.41 41.83 3.19 44.85 0 133.5 93.35"/></g><g id="stripe-26" data-name="stripe"><polygon points="95.67 95.61 88.72 94.66 4 5.44 7.03 2.25 95.67 95.61"/></g><g id="stripe-27" data-name="stripe"><polygon points="96.39 94.86 89.44 93.91 4.71 4.69 7.74 1.5 96.39 94.86"/></g><g id="stripe-28" data-name="stripe"><polygon class="cls-3" points="97.82 93.35 90.86 92.41 6.14 3.19 9.17 0 97.82 93.35"/></g><g id="stripe-29" data-name="stripe"><polygon class="cls-3" points="172.76 93.35 165.8 92.41 81.08 3.19 84.11 0 172.76 93.35"/></g><g id="stripe-30" data-name="stripe"><polygon class="cls-3" points="178.11 57.65 172.66 58.29 120.34 3.19 123.36 0 178.11 57.65"/></g><g id="stripe-31" data-name="stripe"><polygon class="cls-3" points="133.5 93.35 126.55 92.41 41.83 3.19 44.85 0 133.5 93.35"/></g><g id="stripe-32" data-name="stripe"><polygon class="cls-3" points="97.82 93.35 90.86 92.41 6.14 3.19 9.17 0 97.82 93.35"/></g></g><g id="txt-bg"><rect x="105.94" y="29.71" width="197.47" height="32.06"/></g><g id="far_back"><path class="cls-4" d="M114.59,55.33l2.33-12.55h-6.81l1-5.34h20.38l-1,5.34H123.7l-2.31,12.55Z"/><path class="cls-4" d="M136.49,53.79a6.43,6.43,0,0,1-2.67-4,8.63,8.63,0,0,1-.25-2.15,10.23,10.23,0,0,1,.18-2l1.53-8.22h6.78l-1.51,8.22a5.27,5.27,0,0,0-.09,1A2.91,2.91,0,0,0,141,48.5q.91,1.32,3.36,1.32h.06a4.18,4.18,0,0,0,3.41-1.32A5.91,5.91,0,0,0,149,45.66l1.53-8.22h6.78l-1.5,8.22c-.16.88-.31,1.64-.45,2.26a9.89,9.89,0,0,1-.63,1.88,8.77,8.77,0,0,1-3.17,4,12.46,12.46,0,0,1-7.08,1.81h-.69A12.56,12.56,0,0,1,136.49,53.79Z"/><path class="cls-4" d="M158.53,55.33l3.31-17.89h9.07l2.44,9.16L179,37.44h9.55L185.3,55.33h-6.72l2-10.87-6.85,10.87h-3.91L167,44.46l-2,10.87Z"/><path class="cls-4" d="M200,37.44l-3.29,17.89h-6.83l3.31-17.89Z"/><path class="cls-4" d="M209,49.93a1.07,1.07,0,0,0,.31.54,3.49,3.49,0,0,0,2.55.7H212a5.71,5.71,0,0,0,2.76-.46,1,1,0,0,0,.47-.42,1,1,0,0,0,.13-.51.91.91,0,0,0-.53-.87,5.35,5.35,0,0,0-2.33-.41l-1.73,0c-2.86-.09-4.9-.64-6.1-1.63a3.93,3.93,0,0,1-1.2-1.67,6.83,6.83,0,0,1-.35-2.28A4.68,4.68,0,0,1,205,39c1.58-1.18,4.13-1.78,7.63-1.78h1a19.75,19.75,0,0,1,6.64.87,4.84,4.84,0,0,1,2.81,2.16,4.28,4.28,0,0,1,.42,1.93,7.39,7.39,0,0,1-.07.91h-7.17a1.27,1.27,0,0,0-.39-1,4.43,4.43,0,0,0-2.54-.55h-.16a5.93,5.93,0,0,0-2.56.38,1.11,1.11,0,0,0-.41.39,1.19,1.19,0,0,0-.11.53.84.84,0,0,0,.52.77,5.68,5.68,0,0,0,2.2.33l1.78,0a19.53,19.53,0,0,1,4,.47A6.11,6.11,0,0,1,221,45.52a3.46,3.46,0,0,1,1.14,1.66,7.78,7.78,0,0,1,.32,2.36,4.94,4.94,0,0,1-2,4.16Q218,55.62,212,55.62h-.5a17.8,17.8,0,0,1-6.86-1.06,4.79,4.79,0,0,1-2.71-2.45,4.5,4.5,0,0,1-.37-1.85,5.53,5.53,0,0,1,.07-.94h7.33A2.87,2.87,0,0,0,209,49.93Z"/><path class="cls-4" d="M238,36.36a14.36,14.36,0,0,1,6.76,1.37,6.78,6.78,0,0,1,3.13,3.2,8.9,8.9,0,0,1,.75,3.7,11.55,11.55,0,0,1-.8,4.41,8.56,8.56,0,0,1-3.38,4.06,13.79,13.79,0,0,1-7.42,1.78h-1a14.05,14.05,0,0,1-6.76-1.39,7.08,7.08,0,0,1-3.13-3.28,8.64,8.64,0,0,1-.75-3.7,10.92,10.92,0,0,1,.82-4.35,8.45,8.45,0,0,1,3.38-4,13.9,13.9,0,0,1,7.4-1.76Zm2.79,6.33a4.3,4.3,0,0,0-3.32-1.11,4.7,4.7,0,0,0-4.2,1.83,5,5,0,0,0-.77,2.86,3,3,0,0,0,.77,2.16,4.19,4.19,0,0,0,3.29,1.14c2,0,3.42-.61,4.23-1.81a5.09,5.09,0,0,0,.75-2.88A3.2,3.2,0,0,0,240.82,42.69Z"/><path class="cls-4" d="M267.22,55.33l-7.1-10-1.85,10H251.6l3.31-17.89h6.92L268.59,47l1.78-9.57H277l-3.31,17.89Z"/><path class="cls-4" d="M293.67,49.73a2.7,2.7,0,0,0,.74-.59,2.11,2.11,0,0,0,.35-.59h-4.95l.64-3.37h12.12L300.7,55.33h-4.59a9.67,9.67,0,0,0-.41-2.19,7.8,7.8,0,0,1-2.1,1.52,10.69,10.69,0,0,1-4.73,1h-.41q-4.63,0-7.06-2.42a7.12,7.12,0,0,1-1.67-2.64,10,10,0,0,1-.54-3.35,10.67,10.67,0,0,1,1-4.67,8.61,8.61,0,0,1,3.61-3.85,14.8,14.8,0,0,1,7.28-1.61h.78A18.71,18.71,0,0,1,299,38.25a5.85,5.85,0,0,1,3.06,2.7,5.44,5.44,0,0,1,.59,2.55,3.11,3.11,0,0,1,0,.48h-7.17a2.13,2.13,0,0,0-.24-.55,1.72,1.72,0,0,0-.49-.48,6.16,6.16,0,0,0-3.29-.68,5.11,5.11,0,0,0-4.22,1.64,4.77,4.77,0,0,0-1,3.05,3.39,3.39,0,0,0,.84,2.43,4.09,4.09,0,0,0,3.18,1.11A6.71,6.71,0,0,0,293.67,49.73Z"/></g><g id="blck_txt"><path d="M115.3,54.58,117.63,42h-6.81l1-5.33h20.37l-1,5.33h-6.79l-2.3,12.56Z"/><path d="M137.2,53a6.51,6.51,0,0,1-2.67-4,8.49,8.49,0,0,1-.25-2.14,10.23,10.23,0,0,1,.18-2L136,36.69h6.79l-1.51,8.22a5.27,5.27,0,0,0-.09,1,2.91,2.91,0,0,0,.52,1.83q.92,1.32,3.36,1.32h.07a4.16,4.16,0,0,0,3.4-1.32,5.91,5.91,0,0,0,1.14-2.84l1.53-8.22H158l-1.51,8.22c-.15.88-.3,1.64-.45,2.26a10.6,10.6,0,0,1-.62,1.88,8.85,8.85,0,0,1-3.18,4,12.46,12.46,0,0,1-7.08,1.8h-.68Q139.78,54.84,137.2,53Z"/><path d="M159.24,54.58l3.31-17.89h9.07l2.45,9.16,5.68-9.16h9.55L186,54.58H179.3l2-10.87-6.86,10.87h-3.9l-2.81-10.87-2,10.87Z"/><path d="M200.74,36.69l-3.29,17.89h-6.83l3.32-17.89Z"/><path d="M209.68,49.18a1.12,1.12,0,0,0,.31.54,3.5,3.5,0,0,0,2.56.7h.14a5.74,5.74,0,0,0,2.76-.46,1.23,1.23,0,0,0,.47-.42A1.08,1.08,0,0,0,216,49a.88.88,0,0,0-.52-.86,5.35,5.35,0,0,0-2.33-.41l-1.74,0c-2.86-.09-4.89-.64-6.1-1.63a4,4,0,0,1-1.2-1.68,6.77,6.77,0,0,1-.35-2.27,4.68,4.68,0,0,1,1.87-3.92q2.39-1.79,7.63-1.78h1a19.81,19.81,0,0,1,6.65.87,4.91,4.91,0,0,1,2.81,2.16,4.38,4.38,0,0,1,.41,1.93,5.94,5.94,0,0,1-.07.91H217a1.25,1.25,0,0,0-.39-1,4.39,4.39,0,0,0-2.53-.55h-.16a5.75,5.75,0,0,0-2.56.38.92.92,0,0,0-.41.39,1.05,1.05,0,0,0-.12.52.83.83,0,0,0,.53.77,5.37,5.37,0,0,0,2.19.34l1.78,0a18.77,18.77,0,0,1,4,.47,6.11,6.11,0,0,1,2.43,1.12,3.46,3.46,0,0,1,1.14,1.66,7.42,7.42,0,0,1,.32,2.35,4.91,4.91,0,0,1-2,4.16q-2.56,1.94-8.59,1.93h-.5a17.74,17.74,0,0,1-6.85-1.06,4.82,4.82,0,0,1-2.72-2.45,4.66,4.66,0,0,1-.36-1.85,6.86,6.86,0,0,1,.06-.94h7.33A2.87,2.87,0,0,0,209.68,49.18Z"/><path d="M238.74,35.61A14.33,14.33,0,0,1,245.5,37a6.73,6.73,0,0,1,3.13,3.2,8.75,8.75,0,0,1,.76,3.7,11.65,11.65,0,0,1-.8,4.4,8.59,8.59,0,0,1-3.38,4.07,13.85,13.85,0,0,1-7.43,1.78h-1a14,14,0,0,1-6.76-1.4,6.91,6.91,0,0,1-3.13-3.27,8.67,8.67,0,0,1-.76-3.7,10.92,10.92,0,0,1,.83-4.35,8.35,8.35,0,0,1,3.38-4,13.86,13.86,0,0,1,7.4-1.76Zm2.79,6.32a4.31,4.31,0,0,0-3.31-1.1q-3,0-4.2,1.83a5,5,0,0,0-.78,2.86,3,3,0,0,0,.78,2.16,4.17,4.17,0,0,0,3.29,1.13q3,0,4.22-1.8a5.13,5.13,0,0,0,.75-2.89A3.23,3.23,0,0,0,241.53,41.93Z"/><path d="M267.93,54.58l-7.1-10-1.85,10h-6.67l3.31-17.89h6.92l6.76,9.57,1.78-9.57h6.65l-3.31,17.89Z"/><path d="M294.38,49a2.56,2.56,0,0,0,.74-.59,2.07,2.07,0,0,0,.36-.59h-5l.64-3.37h12.13l-1.88,10.15h-4.59a8.92,8.92,0,0,0-.41-2.19,7.8,7.8,0,0,1-2.1,1.52,10.8,10.8,0,0,1-4.73,1h-.41q-4.64,0-7.05-2.43a6.77,6.77,0,0,1-1.67-2.63,9.79,9.79,0,0,1-.55-3.36,10.8,10.8,0,0,1,1-4.66A8.61,8.61,0,0,1,284.49,38a14.84,14.84,0,0,1,7.29-1.61h.77a18.46,18.46,0,0,1,7.17,1.15,5.78,5.78,0,0,1,3.06,2.7,5.45,5.45,0,0,1,.6,2.55c0,.21,0,.37,0,.48h-7.18a2.2,2.2,0,0,0-.24-.56,1.6,1.6,0,0,0-.49-.48,6.15,6.15,0,0,0-3.29-.67,5.11,5.11,0,0,0-4.22,1.64,4.77,4.77,0,0,0-1,3.05,3.35,3.35,0,0,0,.85,2.43A4.07,4.07,0,0,0,291,49.75,6.68,6.68,0,0,0,294.38,49Z"/></g><g id="white_txt"><path class="cls-3" d="M116.73,53.08l2.33-12.56h-6.81l1-5.34h20.38l-1,5.34h-6.78l-2.31,12.56Z"/><path class="cls-3" d="M138.63,51.54a6.47,6.47,0,0,1-2.67-4,8.55,8.55,0,0,1-.25-2.14,10.16,10.16,0,0,1,.18-2l1.53-8.23h6.78l-1.5,8.23a5.16,5.16,0,0,0-.1,1,2.91,2.91,0,0,0,.53,1.83q.92,1.32,3.36,1.32h.07a4.18,4.18,0,0,0,3.4-1.32,6,6,0,0,0,1.14-2.84l1.53-8.23h6.78l-1.5,8.23c-.16.88-.3,1.63-.45,2.26a9.81,9.81,0,0,1-.63,1.87,8.8,8.8,0,0,1-3.17,4,12.46,12.46,0,0,1-7.08,1.8h-.69Q141.21,53.34,138.63,51.54Z"/><path class="cls-3" d="M160.67,53.08,164,35.18h9.07l2.44,9.17,5.69-9.17h9.55l-3.29,17.9h-6.72l2-10.87-6.85,10.87H172l-2.81-10.87-2,10.87Z"/><path class="cls-3" d="M202.17,35.18l-3.29,17.9h-6.83l3.31-17.9Z"/><path class="cls-3" d="M211.11,47.68a1.16,1.16,0,0,0,.31.54,3.55,3.55,0,0,0,2.56.7h.13a5.92,5.92,0,0,0,2.77-.46,1.19,1.19,0,0,0,.46-.42,1,1,0,0,0,.13-.52.91.91,0,0,0-.53-.87,5.35,5.35,0,0,0-2.33-.4l-1.73,0c-2.86-.1-4.9-.64-6.1-1.64a3.87,3.87,0,0,1-1.2-1.67,6.81,6.81,0,0,1-.35-2.27,4.68,4.68,0,0,1,1.87-3.92c1.58-1.19,4.13-1.78,7.63-1.78h1.05a20.16,20.16,0,0,1,6.65.86,4.9,4.9,0,0,1,2.8,2.17,4.24,4.24,0,0,1,.42,1.92,7.55,7.55,0,0,1-.07.92h-7.17a1.25,1.25,0,0,0-.39-1,4.39,4.39,0,0,0-2.54-.56h-.16a5.67,5.67,0,0,0-2.55.39,1.05,1.05,0,0,0-.42.38,1.22,1.22,0,0,0-.11.53.81.81,0,0,0,.53.77,5.55,5.55,0,0,0,2.19.34l1.78,0a18.23,18.23,0,0,1,4,.47,6.1,6.1,0,0,1,2.43,1.11,3.51,3.51,0,0,1,1.14,1.66,7.83,7.83,0,0,1,.32,2.36,4.91,4.91,0,0,1-2,4.16c-1.71,1.28-4.57,1.93-8.59,1.93h-.5a17.9,17.9,0,0,1-6.85-1.06A4.8,4.8,0,0,1,204,49.85a4.46,4.46,0,0,1-.37-1.85,6.79,6.79,0,0,1,.07-.94h7.33A3,3,0,0,0,211.11,47.68Z"/><path class="cls-3" d="M239.46,34.86a14.26,14.26,0,0,1,6.76,1.37,6.78,6.78,0,0,1,3.13,3.2,8.86,8.86,0,0,1,.75,3.7,11.65,11.65,0,0,1-.8,4.4,8.59,8.59,0,0,1-3.38,4.07,13.91,13.91,0,0,1-7.42,1.78h-1a14,14,0,0,1-6.76-1.4,7,7,0,0,1-3.13-3.27,8.67,8.67,0,0,1-.75-3.7,11,11,0,0,1,.82-4.36,8.49,8.49,0,0,1,3.38-4,13.88,13.88,0,0,1,7.4-1.75Zm2.78,6.32a4.31,4.31,0,0,0-3.31-1.1q-3,0-4.2,1.82a5,5,0,0,0-.78,2.87,3,3,0,0,0,.78,2.16A4.19,4.19,0,0,0,238,48.06q3,0,4.22-1.8a5.07,5.07,0,0,0,.76-2.89A3.19,3.19,0,0,0,242.24,41.18Z"/><path class="cls-3" d="M269.36,53.08l-7.1-10-1.85,10h-6.67l3.31-17.9H264l6.76,9.58,1.78-9.58h6.65l-3.31,17.9Z"/><path class="cls-3" d="M295.81,47.47a2.38,2.38,0,0,0,.74-.59,2,2,0,0,0,.35-.59H292l.64-3.36h12.12l-1.87,10.15h-4.59a9.43,9.43,0,0,0-.41-2.19,7.76,7.76,0,0,1-2.1,1.51,10.69,10.69,0,0,1-4.73,1h-.41q-4.64,0-7.06-2.43a6.94,6.94,0,0,1-1.66-2.63,9.79,9.79,0,0,1-.55-3.36,10.62,10.62,0,0,1,1-4.66,8.51,8.51,0,0,1,3.61-3.85,14.69,14.69,0,0,1,7.28-1.61H294A18.52,18.52,0,0,1,301.15,36a5.88,5.88,0,0,1,3.06,2.69,5.45,5.45,0,0,1,.6,2.55,2.88,2.88,0,0,1,0,.48h-7.17a2.29,2.29,0,0,0-.24-.55,1.72,1.72,0,0,0-.49-.48,6.15,6.15,0,0,0-3.29-.67,5.11,5.11,0,0,0-4.22,1.63,4.82,4.82,0,0,0-1,3.06,3.42,3.42,0,0,0,.84,2.43,4.13,4.13,0,0,0,3.18,1.1A6.61,6.61,0,0,0,295.81,47.47Z"/></g></g></g></g></svg>