<svg xmlns="http://www.w3.org/2000/svg" xmlns:xlink="http://www.w3.org/1999/xlink" viewBox="0 0 410 113.64"><defs><style>.cls-1{fill:none;}.cls-2{clip-path:url(#clip-path);}.cls-3{fill:#fff;}.cls-4{fill:#e6e6e6;}.cls-5{fill:#feae01;}</style><clipPath id="clip-path"><rect class="cls-1" y="6.7" width="404" height="104"/></clipPath></defs><title>logo_v2</title><g id="Layer_2" data-name="Layer 2"><g id="Layer_1-2" data-name="Layer 1"><g class="cls-2"><g id="logo__bg"><polygon points="409 6.7 409 112.66 0 112.66 0 6.7 52.27 6.7 52.77 7.68 99.27 7.68 98.77 6.7 409 6.7"/><path class="cls-3" d="M94.27,5.72h-.2l-.5,1h1.2Zm4.33,1,1,1H409v105H1V7.68H53.11l-1-1H0V113.64H410V6.7Z"/></g><g id="stripe"><polygon points="100.1 113.64 91.62 113.64 90.62 112.66 1 24.74 0 23.76 0 15.42 1 16.41 99.1 112.66 100.1 113.64"/></g><g id="stripe-2" data-name="stripe"><polygon points="154.99 113.64 146.28 113.64 145.28 112.66 113.11 81.1 100.8 69.03 99.45 67.71 98.78 67.04 92.82 61.2 91.48 59.88 90.8 59.22 87.84 56.32 86.84 55.34 84.85 53.37 82.82 51.38 76 44.7 38.27 7.68 38.17 7.58 39.17 6.6 39.27 6.7 46 6.7 46.99 7.67 78.8 38.88 85.99 45.95 86 45.95 89.02 48.91 93.16 52.97 94.03 53.83 100.01 59.7 100.7 60.37 102.06 61.7 121.6 80.88 154.99 113.64"/></g><g id="stripe-3" data-name="stripe"><polygon class="cls-3" points="106.77 5.72 98.27 5.72 99.27 7.68 52.77 7.68 51.77 5.72 94.07 5.72 93.57 6.7 94.77 6.7 94.27 6.23 94.17 6.13 100.42 0 106.77 5.72"/><polygon class="cls-3" points="45.42 0.47 51.77 6.7 39.27 6.7 39.17 6.6 45.42 0.47"/><polygon points="94.77 6.7 93.57 6.7 94.17 6.11 94.27 6.21 94.77 6.7"/><polygon points="174.06 78.42 166.29 79.26 139.37 52.84 138 51.51 138 51.73 138 51.08 138 51.07 125.45 38.78 93.27 7.68 99.27 7.68 98.27 6.7 100.77 6.7 101.77 7.21 133.95 38.78 141.39 46.08 143.22 47.89 144.22 48.87 147.33 51.92 148 52.58 148 52.59 149.36 53.91 152.68 57.17 153 57.83 153 57.8 154.35 59.13 160 64.66 160 64.63 160.68 65.29 162.05 66.64 164.37 68.91 173.25 77.62 174.06 78.42"/></g><g id="stripe-4" data-name="stripe"><polygon points="175.3 77.46 173.44 77.67 167.4 78.31 151.7 62.91 151 62.23 151 62.49 148 59.22 148 59.21 146.68 57.92 146 57.26 146 57.72 140.29 51.88 139 50.57 139 50.56 138.36 49.9 127.94 39.26 97.09 7.68 101.08 7.68 100.11 6.7 104.46 6.7 105.42 7.68 136.52 39.26 143.54 46.4 146.44 49.34 147.82 50.74 148.48 51.41 149.78 52.74 153 55.99 153 56 153.65 56.66 154.95 57.98 160.34 63.46 161 64.12 161 63.43 162.39 64.79 163.64 66.02 173.65 75.84 175.3 77.46"/></g><g id="stripe-5" data-name="stripe"><polygon class="cls-4" points="160.76 113.64 152.28 113.64 151.28 112.66 119.11 81.1 101.78 64.1 100.42 62.77 99.75 62.11 93.8 56.28 90.84 53.37 86.73 49.34 85.82 48.44 85.73 48.36 76.45 39.26 44.27 7.68 43.27 6.7 51.77 6.7 52.77 7.68 84.95 39.26 101.8 55.79 102.34 56.32 103.15 57.12 160.76 113.64"/></g><g id="stripe-6" data-name="stripe"><polygon class="cls-4" points="176.64 75.73 173.09 76.13 171.3 76.31 169.1 76.56 152.8 60.34 152.14 59.68 148.87 56.42 141.75 49.34 141 48.6 141 48.6 140.76 48.36 131.6 39.26 99.87 7.68 98.88 6.7 106.77 6.7 107.77 7.21 139.94 38.78 147.22 45.93 150.33 48.98 153.66 52.24 154.33 52.9 155.68 54.23 161.26 59.7 162 60.36 162 60.37 163 60.76 163 60.77 163 61.68 163 62.16 163.79 62.95 171.8 70.92 171.99 71.11 176.64 75.73"/></g><g id="stripe-7" data-name="stripe"><polygon class="cls-4" points="106.1 113.64 97.62 113.64 96.62 112.66 1 18.86 0 17.88 0 9.54 1 10.52 105.1 112.66 106.1 113.64"/></g><polygon points="51.1 113.64 42.62 113.64 41.62 112.66 2 73.79 1 72.81 1 64.49 2 65.47 50.1 112.66 51.1 113.64"/><polygon points="52.1 113.64 43.62 113.64 42.62 112.66 1 71.83 0 70.85 0 62.52 0.5 63.01 1 63.51 51.1 112.66 52.1 113.64"/><polygon class="cls-4" points="56.1 113.64 47.62 113.64 46.62 112.66 1 67.9 0 66.92 0 58.59 1 59.57 55.1 112.66 56.1 113.64"/><g id="stripe-8" data-name="stripe"><polygon class="cls-4" points="160.76 113.64 152.28 113.64 151.28 112.66 119.11 81.1 101.78 64.1 100.42 62.77 99.75 62.11 93.8 56.28 90.84 53.37 86.73 49.34 85.82 48.44 85.73 48.36 76.45 39.26 44.27 7.68 43.27 6.7 51.77 6.7 52.77 7.68 84.95 39.26 101.8 55.79 102.34 56.32 103.15 57.12 160.76 113.64"/></g><g id="stripe-9" data-name="stripe"><polygon class="cls-4" points="176.64 75.73 173.09 76.13 171.3 76.31 169.1 76.56 152.8 60.34 152.14 59.68 148.87 56.42 141.75 49.34 141 48.6 141 48.6 140.76 48.36 131.6 39.26 99.87 7.68 98.88 6.7 106.77 6.7 107.77 7.21 139.94 38.78 147.22 45.93 150.33 48.98 153.66 52.24 154.33 52.9 155.68 54.23 161.26 59.7 162 60.36 162 60.37 163 60.76 163 60.77 163 61.68 163 62.16 163.79 62.95 171.8 70.92 171.99 71.11 176.64 75.73"/></g><g id="stripe-10" data-name="stripe"><polygon class="cls-4" points="106.1 113.64 97.62 113.64 96.62 112.66 1 18.86 0 17.88 0 9.54 1 10.52 105.1 112.66 106.1 113.64"/></g><polygon class="cls-4" points="57.1 113.64 48.62 113.64 47.62 112.66 2 67.9 1 66.92 1 58.59 2 59.57 56.1 112.66 57.1 113.64"/><g id="txt-bg"><rect x="76" y="39.08" width="277" height="42.19"/></g><g id="logo__bg-2" data-name="logo__bg"><rect class="cls-1" y="6.7" width="410" height="106.94"/></g><ellipse cx="263" cy="58.7" rx="26" ry="25.51"/><path class="cls-5" d="M83.43,48.89l-.08.4L83,50.9l-1,4.86h9.24L91.07,57l-.34,1.67L88,72.44h9.71l.19-1,.4-2,.55-2.77L99.18,65l.66-3.35.41-2.08.34-1.67.41-2.14h9.18l.19-1,.38-1.93.79-4Z"/><path class="cls-5" d="M138.42,48.89l-.1.56L138,51.07v0l-1.65,8.29a10.1,10.1,0,0,1-.57,2,6.8,6.8,0,0,1-.7,1.26,0,0,0,0,1,0,0l-.27.32a5.85,5.85,0,0,1-4.63,1.68h-.09c-2.23,0-3.75-.55-4.58-1.68a3.48,3.48,0,0,1-.7-2.31,6.3,6.3,0,0,1,.11-1.28L127,48.89h-9.09l-2.06,10.67a12.85,12.85,0,0,0-.25,2.56,11,11,0,0,0,.34,2.77,8.42,8.42,0,0,0,3.61,5.21c2.33,1.56,5.59,2.34,9.81,2.34h.92q6,0,9.56-2.34A10,10,0,0,0,142,68.19a8.65,8.65,0,0,0,.9-1.17,14.08,14.08,0,0,0,1.17-2.1A12.49,12.49,0,0,0,145,62.5c.19-.82.39-1.8.61-2.94l.13-.71.31-1.63h0l.63-3.26.38-2,.31-1.64.27-1.39Z"/><path class="cls-5" d="M177.6,48.89l-5.11,8-1.74,2.72L169.87,61l-3.33-12.07H154.33l-.67,3.36L153,55.52h0l-.32,1.64-.4,2L152,62.49h0l-.7,1.64-1.61,8.3h8.84l.13-.64.06-.35.25-1.31.13-.67.5-2.64.4-2h0l.31-1.65.63-3.31.32-1.67.46,1.71.28,1h0l.63,2.37.82,3.06.72,2.71.91,3.38v0h5.31l.64-1,.53-.81.76-1.17,7.39-11.33-.14.71-.27,1.41L177,72.44h9.14l.18-1,.38-2,3.91-20.58Z"/><path class="cls-5" d="M198.28,48.89l-4.69,23.55h9.65l.19-1,.39-2,4.07-20.58Z"/><path class="cls-5" d="M240.62,52.74a3.77,3.77,0,0,0-.32-.78,5.35,5.35,0,0,0-1.86-1.87,10.69,10.69,0,0,0-2.17-1,30.88,30.88,0,0,0-9.54-1.15h-1.21c-4.34,0-7.64.59-9.92,1.78a7.71,7.71,0,0,0-1,.59l-.31.24h0a6,6,0,0,0-2.35,5,8.3,8.3,0,0,0,.5,3,5.16,5.16,0,0,0,1.71,2.22l.48.33c1.76,1.12,4.51,1.73,8.24,1.85l1.44,0,1,0a8.45,8.45,0,0,1,3.3.54h0a1.19,1.19,0,0,1,.75,1.15,1,1,0,0,1-.05.36,1,1,0,0,1-.13.33,1.62,1.62,0,0,1-.67.56,8.92,8.92,0,0,1-3.94.61h-.28s-3,0-3.58-.66a1.49,1.49,0,0,1-.43-.7c-.05-.25-.08-.6-.08-.6h-9.95a6.15,6.15,0,0,0-.1,1.17,5.42,5.42,0,0,0,.49,2.3,6.29,6.29,0,0,0,3.63,3.06,25.41,25.41,0,0,0,9.16,1.32h1c5.7,0,9.74-.85,12.16-2.54A6.92,6.92,0,0,0,238,68.66a6,6,0,0,0,.76-1.17l0,0a6.94,6.94,0,0,0,.65-3A9.63,9.63,0,0,0,239,61.3a4.6,4.6,0,0,0-1.62-2.18l-.26-.18a9.32,9.32,0,0,0-3.18-1.29,29,29,0,0,0-5.66-.63L225.7,57a8.19,8.19,0,0,1-3.1-.45,1.1,1.1,0,0,1-.74-1,1.48,1.48,0,0,1,.16-.7,1.41,1.41,0,0,1,.58-.51,2.08,2.08,0,0,1,.3-.13,10.56,10.56,0,0,1,3.32-.37h.35a10.5,10.5,0,0,1,2.11.18,3.75,3.75,0,0,1,1.3.51,1.52,1.52,0,0,1,.52,1.27h10.3a9.22,9.22,0,0,0,.09-1,1.7,1.7,0,0,0,0-.22A5.46,5.46,0,0,0,240.62,52.74Z"/><path class="cls-5" d="M306.46,48.89,305,56l-.74,3.67-.36,1.84-9.55-12.6h-9.77L280,72.44h9.41l.19-1,.4-2,2-10.23.65.85,1.29,1.7L302,72.44h9.17l.19-1,.39-2,4.09-20.58Z"/><path class="cls-5" d="M330.89,56.89a4.86,4.86,0,0,1,1.28-.72,9.73,9.73,0,0,1,3.75-.65,9.08,9.08,0,0,1,4.5.84.05.05,0,0,1,0,0,2.62,2.62,0,0,1,.68.62,3.19,3.19,0,0,1,.34.72h10.83a6,6,0,0,0,0-.69c0-.12,0-.25,0-.38a3,3,0,0,0,0-.43,6.61,6.61,0,0,0-.38-1.72,6.32,6.32,0,0,0-.48-1.1,8.84,8.84,0,0,0-4.69-3.85,30.46,30.46,0,0,0-11-1.64h-.28A22.19,22.19,0,0,0,325.14,50a10.59,10.59,0,0,0-1.26.77,10.1,10.1,0,0,0-1.16.88A11.2,11.2,0,0,0,320,55.13a13.22,13.22,0,0,0-1.4,6.17,12.25,12.25,0,0,0,.78,4.44,9.26,9.26,0,0,0,2.37,3.49c2.29,2.13,5.62,3.21,10,3.21h.52s4.72-.23,6.62-1.08a11.23,11.23,0,0,0,2.95-2,25.63,25.63,0,0,1,.57,3.06h6.49l.18-1,.38-1.89,2-9.92H334.52l-.67,2.59-.23,1.34h6.88c-.05.1-.11.23-.19.36s-.19.25-.31.39a3.58,3.58,0,0,1-1,.77,9.81,9.81,0,0,1-4.68,1,5.89,5.89,0,0,1-4.38-1.42,4.18,4.18,0,0,1-1.18-3.13,5.92,5.92,0,0,1,1.34-3.94A3.75,3.75,0,0,1,330.89,56.89Z"/><g id="white_txt"><path d="M84.43,47.91l-.19,1L84,49.92l-.32,1.62-.64,3.24h9.24l-.59,2.95-.32,1.67L89,71.46h9.71l.39-2,.41-2.09.34-1.68.65-3.34.42-2.09.32-1.67.56-2.81.1-.54.09-.46h9.18l.38-1.94,1-4.93Z"/><path d="M139.42,47.91l-.2,1L138,50.09h0l1,1.63h0l-1.72,6.89a8.91,8.91,0,0,1-.94,2.77,4.57,4.57,0,0,1-.66.93A3.92,3.92,0,0,1,135,63h0a4.62,4.62,0,0,1-4.05.63h-.09c-2.29.45-3.86-.12-4.71-1.28a3.56,3.56,0,0,1-.73-2.38,6.67,6.67,0,0,1,.12-1.32l2.12-10.72h-9.51l-.2,1L116,58.63a12.3,12.3,0,0,0-.26,2.57,10.79,10.79,0,0,0,.35,2.8,8.49,8.49,0,0,0,3.75,5.24c2.41,1.57,5.8,2.35,10.17,2.22h1c4.12.13,7.43-.65,9.92-2.22a10,10,0,0,0,1.3-.94,10.51,10.51,0,0,0,1.49-1.56A14.21,14.21,0,0,0,145.31,64a12.82,12.82,0,0,0,.88-2.44c.14-.59.29-1.27.45-2q.09-.44.18-.93l.14-.71.65-3.29.39-2h0l.33-1.64.6-3Z"/><path d="M179.42,47.91l-.65,1-5.52,8.3-1.79,2.69-.1-.36L168,47.91H155l-.2,1L154,53l-.66,3.32L153,57.93h0l-.41,2-.66,3.32L151.6,65l-1.29,6.51h9.47l.13-.84.26-1.33.39-2,.4-2,0-1.63h0l1-3.28h0l.06-.62.53-2.68.94,3.39.56,2,2.25,8.09.19.89H172l.41-.82.92-1.35,7.13-10.54,1.14-1.69-.28,1.41-2.54,13h9.41l.39-2.17,4.22-21.38Z"/><path d="M199.28,47.91l-.2,1-4.49,22.56h9.65l.39-2,4.26-21.57Z"/><path d="M241.85,52.77A5.2,5.2,0,0,0,241.3,51a5.65,5.65,0,0,0-2.4-2.18,10.25,10.25,0,0,0-1.63-.72,30.88,30.88,0,0,0-9.54-1.15h-1.21q-7.19,0-10.6,2.18a3,3,0,0,0-.3.19,6.6,6.6,0,0,0-1.33,1.24h0a6.06,6.06,0,0,0-1.33,4,8.21,8.21,0,0,0,.5,3,5.18,5.18,0,0,0,1.71,2.23,8.69,8.69,0,0,0,2.73,1.33,22.09,22.09,0,0,0,5.5.83l.49,0,2.48.06a8.34,8.34,0,0,1,3.33.55,1.18,1.18,0,0,1,.7.8,1,1,0,0,1,.05.35,1.34,1.34,0,0,1-.18.69,1.62,1.62,0,0,1-.67.56l-.22.11a10.07,10.07,0,0,1-3.72.5h-.28s-3,0-3.58-.66a1.49,1.49,0,0,1-.43-.7c-.05-.25-.08-.6-.08-.6h-9.95a4.66,4.66,0,0,0-.09.93,1.93,1.93,0,0,0,0,.24,5.42,5.42,0,0,0,.49,2.3,6.29,6.29,0,0,0,3.63,3.06,25.41,25.41,0,0,0,9.16,1.32h1c5.7,0,9.74-.86,12.16-2.54l.33-.25a6.75,6.75,0,0,0,.91-.86,7,7,0,0,0,.52-.7,6.55,6.55,0,0,0,1-3.68,9.54,9.54,0,0,0-.45-3.11,4.6,4.6,0,0,0-1.62-2.18,6.25,6.25,0,0,0-1.26-.74,10.69,10.69,0,0,0-2.18-.73,29,29,0,0,0-5.66-.63L226.7,56a8.23,8.23,0,0,1-3.1-.44,1.1,1.1,0,0,1-.74-1,1.9,1.9,0,0,1,0-.35,1.4,1.4,0,0,1,.13-.36,1.47,1.47,0,0,1,.58-.5,4.4,4.4,0,0,1,1.36-.38,15.82,15.82,0,0,1,2.26-.13h.35a6.22,6.22,0,0,1,3.41.7,1.17,1.17,0,0,1,.38.5,2,2,0,0,1,.14.77h10.3a9.11,9.11,0,0,0,.1-1.23A6.53,6.53,0,0,0,241.85,52.77Z"/><path d="M307.46,47.91l-.2,1-1.59,7.94-.73,3.67-.65-.85-8.9-11.75h-9.77l-.19,1L281,71.46h9.41l.4-2,1.85-9.38.36-1.84L294.26,60,303,71.46h9.17l.39-2,4.28-21.57Z"/><path d="M353.21,54.59a7.11,7.11,0,0,0-.77-2.17,8.84,8.84,0,0,0-4.69-3.85,30.24,30.24,0,0,0-11-1.64h-.28a22.19,22.19,0,0,0-10.35,2.13,12.32,12.32,0,0,0-1.86,1.2,10.25,10.25,0,0,0-1.57,1.44A11.56,11.56,0,0,0,321,54.15a13.22,13.22,0,0,0-1.4,6.17,12.16,12.16,0,0,0,.78,4.43,9.11,9.11,0,0,0,2.37,3.49q3.44,3.21,10,3.22h.52s4.72-.23,6.62-1.08a11,11,0,0,0,2.95-2,26.09,26.09,0,0,1,.57,3.07h6.49l.37-1.89,2.15-10.87H335.52l-.2.29-.7,3.64h6.88a2.94,2.94,0,0,1-.5.75,3.06,3.06,0,0,1-.68.57,3.4,3.4,0,0,1-.34.2,9.93,9.93,0,0,1-4.68,1,5.89,5.89,0,0,1-4.38-1.42,4.18,4.18,0,0,1-1.18-3.13,6,6,0,0,1,1.16-3.71l.18-.23a5,5,0,0,1,1.41-1.12,8.78,8.78,0,0,1,4.43-1,9,9,0,0,1,4.54.86,2.62,2.62,0,0,1,.68.62,2.68,2.68,0,0,1,.18.33,3.52,3.52,0,0,1,.16.39h10.83c0-.11,0-.26,0-.43a2.09,2.09,0,0,0,0-.26A7.85,7.85,0,0,0,353.21,54.59Z"/></g><g id="white_txt-2" data-name="white_txt"><path class="cls-4" d="M86.43,46l-.38,1.93V48l-.18.88L85.4,51.2l-.32,1.61h9.24l-.17.87-.42,2.09-.66,3.34-.33,1.67L91,69.49h9.71l.14-.74.34-1.67.66-3.35.4-2.09.33-1.66.66-3.35.16-.82.2-1,.39-2h9.18L114.54,46Z"/><path class="cls-4" d="M141.42,46l0,.15-.34,1.8-.05.23v0l-.15.71-.48,2.47-.32,1.59-.7,3.52A7.32,7.32,0,0,1,137.8,60a4.43,4.43,0,0,1-1.3,1,4.08,4.08,0,0,1-.64.26,7.8,7.8,0,0,1-2.69.41h-.09c-2.23,0-3.75-.55-4.58-1.67a3.51,3.51,0,0,1-.7-2.32,6.26,6.26,0,0,1,.11-1.27L130,46h-9l-.38,1.95-.19,1-1.48,7.75a12.12,12.12,0,0,0-.25,2.55A11.1,11.1,0,0,0,119,62a8.42,8.42,0,0,0,3.6,5.2q3.47,2.34,9.75,2.34h.92c4,0,7.13-.78,9.51-2.34A1.14,1.14,0,0,0,143,67c.19-.12.36-.25.53-.38A11.77,11.77,0,0,0,147.07,62c.2-.44.37-.87.52-1.31a9.42,9.42,0,0,0,.32-1.12c0-.12.06-.26.09-.4h0c.17-.73.34-1.56.52-2.52l.13-.71.39-2,.3-1.64L150,49l.57-3Z"/><path class="cls-4" d="M181.27,46l-1.31,2-.66,1L173.25,58l-.21-.73-.1-.38L169.79,46H157l-.39,2-.19,1-1.08,5.4-.66,3.32-.33,1.65-.4,2-.66,3.32L153,66.3l-.63,3.19h9.16l.13-.63.4-2.06.32-1.66.38-1.86.29-1.44h0l.24-1.25,1.07-5.39,3,10.9.95,3.4h5.52l6.22-9.2,1.15-1.7,2.3-3.4-2.84,14.3h9.48L194.76,46Z"/><path class="cls-4" d="M201.28,46l-.39,2-.2,1-4.1,20.58h9.65L210.89,46Z"/><path class="cls-4" d="M225.68,51.35a8.73,8.73,0,0,1,3.58-.5h.23A17.08,17.08,0,0,1,233,51.93c.36.29.54,1.87.54,1.87H243.8a9.11,9.11,0,0,0,.1-1.23,5.48,5.48,0,0,0-.6-2.57A6.43,6.43,0,0,0,240,47.37l-.72-.27A30.88,30.88,0,0,0,229.73,46H227.9c-4.75,0-8.18.75-10.33,2.24a6.09,6.09,0,0,0-1.65,1.72c-.12.19-.22.38-.32.57a6.21,6.21,0,0,0-.56,2.66,7.8,7.8,0,0,0,.47,2.86,4.8,4.8,0,0,0,1.63,2.11c1.63,1.26,4.38,1.94,8.26,2.07l2.34,0a7.88,7.88,0,0,1,3.15.52,1.13,1.13,0,0,1,.72,1.09,1.23,1.23,0,0,1-.18.66,1.4,1.4,0,0,1-.62.53,4.3,4.3,0,0,1-1.18.38,11.87,11.87,0,0,1-1.66.18l-.9,0h-.2a6.21,6.21,0,0,1-3-.56,2.17,2.17,0,0,1-.44-.32,1.41,1.41,0,0,1-.42-.68v.36a3.57,3.57,0,0,1-.08-.77h-9.79a6.24,6.24,0,0,0-.09,1.17c0,.25,0,.48,0,.71a5.69,5.69,0,0,0,.2.93c.07.23.16.45.25.67a6.31,6.31,0,0,0,3.63,3,25.41,25.41,0,0,0,9.16,1.32h1q7.64,0,11.39-2h0a6.19,6.19,0,0,0,.67-.39,2.2,2.2,0,0,0,.25-.17,6.45,6.45,0,0,0,2.82-5.57A9.51,9.51,0,0,0,242,58.2,4.63,4.63,0,0,0,240.4,56a4.91,4.91,0,0,0-.44-.31,8.62,8.62,0,0,0-2.34-1l-.3-.08-.41-.11a29.1,29.1,0,0,0-5.57-.62h-.18l-2.56-.06h-2.14a3.41,3.41,0,0,1-.78-.25,1.24,1.24,0,0,1-.66-.61,1,1,0,0,1-.08-.39,1.51,1.51,0,0,1,.16-.7A1.47,1.47,0,0,1,225.68,51.35Z"/><path class="cls-4" d="M309.47,46l-.4,2-.2,1L307,58.55l-1.28-1.7L305,56,297.4,46h-9.76l-.4,2-.19,1-.05.25h0l-4,20.32h9.41l1.52-7.68.37-1.84L295,56.3l10,13.19h9.17L318.85,46Z"/><path class="cls-4" d="M332.51,55.49a4.55,4.55,0,0,1,.57-.81q1.82-2.1,5.84-2.1a9,9,0,0,1,4.54.86,2.46,2.46,0,0,1,.68.62,3,3,0,0,1,.34.72h10.83a6,6,0,0,0,0-.69,7.29,7.29,0,0,0-2.14-5.28,9.57,9.57,0,0,0-3.45-2.2,30.24,30.24,0,0,0-11-1.64h-.28a22.32,22.32,0,0,0-10.35,2.12,12.13,12.13,0,0,0-3.89,3.19,4.57,4.57,0,0,0-.41.57,10,10,0,0,0-.81,1.33,13.27,13.27,0,0,0-1.4,6.18,12.16,12.16,0,0,0,.78,4.43,9.19,9.19,0,0,0,2.37,3.49q3.44,3.21,10,3.21h.52s4.72-.22,6.62-1.08a11,11,0,0,0,2.95-2,26,26,0,0,1,.57,3.06h6.49l.76-3.84,1.76-8.91H337.52l-.6,2.25-.3,1.67h6.88a2.81,2.81,0,0,1-.5.76,3.39,3.39,0,0,1-1,.76,7.93,7.93,0,0,1-.93.42,11.12,11.12,0,0,1-3.75.57,7.09,7.09,0,0,1-3.39-.7,3.46,3.46,0,0,1-1-.72,4.2,4.2,0,0,1-1.18-3.13,6.21,6.21,0,0,1,.47-2.49A5.31,5.31,0,0,1,332.51,55.49Z"/></g><path class="cls-5" d="M275.15,53a9.2,9.2,0,0,0-4.44-4.23,21.52,21.52,0,0,0-9.61-1.82h-1.46q-6.49,0-10.52,2.33a11.57,11.57,0,0,0-1.29.86,6.91,6.91,0,0,0-.6.5,11.21,11.21,0,0,0-2.92,4,13.88,13.88,0,0,0-1.17,5.78,10.67,10.67,0,0,0,1.08,4.89,9.45,9.45,0,0,0,4.44,4.34,21.23,21.23,0,0,0,9.61,1.85h1.46q6.5,0,10.55-2.36a11.52,11.52,0,0,0,2.86-2.34c.15-.16.29-.33.42-.5a11.14,11.14,0,0,0,1.53-2.54,14.44,14.44,0,0,0,1.14-5.83A11,11,0,0,0,275.15,53Zm-20.7,3.69a5.12,5.12,0,0,1,1.09-1.09,4.22,4.22,0,0,1,.61-.39,8.64,8.64,0,0,1,4.19-.9c2.16,0,3.7.48,4.64,1.44A4,4,0,0,1,266,58.58a6.7,6.7,0,0,1-.74,3.27c-.1.18-.21.34-.32.5a.32.32,0,0,1-.08.09q-1.68,2.27-5.84,2.27-3.19,0-4.61-1.48a3.85,3.85,0,0,1-1.08-2.82A6.24,6.24,0,0,1,254.45,56.67Z"/><path d="M276.15,52a9.2,9.2,0,0,0-4.44-4.23A21.52,21.52,0,0,0,262.1,46h-1.46q-6.49,0-10.52,2.33a10.32,10.32,0,0,0-1.89,1.36,8.67,8.67,0,0,0-1,1,11.5,11.5,0,0,0-1.91,3,13.84,13.84,0,0,0-1.17,5.78,10.67,10.67,0,0,0,1.08,4.89,9.5,9.5,0,0,0,4.44,4.34,21.24,21.24,0,0,0,9.61,1.84h1.46q6.5,0,10.55-2.35a10.84,10.84,0,0,0,1.85-1.35,9.44,9.44,0,0,0,1-1,11.7,11.7,0,0,0,1.95-3,14.44,14.44,0,0,0,1.14-5.83A11,11,0,0,0,276.15,52Zm-21.78,7.43a6.24,6.24,0,0,1,1.08-3.74l.09-.11a4.43,4.43,0,0,1,1-1,7.91,7.91,0,0,1,4.8-1.3c2.16,0,3.7.49,4.64,1.45A4,4,0,0,1,267,57.6,6.27,6.27,0,0,1,266,61.37a.32.32,0,0,1-.08.09,4.05,4.05,0,0,1-1,1,8,8,0,0,1-4.84,1.28q-3.19,0-4.61-1.47A3.85,3.85,0,0,1,254.37,59.43Z"/><path class="cls-4" d="M277.15,51a9.2,9.2,0,0,0-4.44-4.23A21.52,21.52,0,0,0,263.1,45h-1.46q-6.49,0-10.52,2.32a11.84,11.84,0,0,0-2.9,2.36c-.15.16-.29.33-.42.5a11.49,11.49,0,0,0-1.49,2.49,13.83,13.83,0,0,0-1.17,5.77,10.68,10.68,0,0,0,1.08,4.9,9.5,9.5,0,0,0,4.44,4.34,21.24,21.24,0,0,0,9.61,1.84h1.46q6.5,0,10.55-2.36a9.75,9.75,0,0,0,1.25-.84,4.68,4.68,0,0,0,.6-.5,11.44,11.44,0,0,0,3-4,14.44,14.44,0,0,0,1.14-5.83A11,11,0,0,0,277.15,51ZM267,60.39a4.57,4.57,0,0,1-1.08,1.07,3.24,3.24,0,0,1-.6.39,8.78,8.78,0,0,1-4.24.89q-3.19,0-4.61-1.47a3.86,3.86,0,0,1-1.08-2.82,6.47,6.47,0,0,1,.78-3.26,3.88,3.88,0,0,1,.3-.48l.09-.11q1.74-2.28,5.8-2.28c2.16,0,3.7.48,4.64,1.45A4,4,0,0,1,268,56.62,6.27,6.27,0,0,1,267,60.39Z"/></g></g></g></svg>