<svg xmlns="http://www.w3.org/2000/svg" viewBox="0 0 1125 2436"><defs><style>.a{fill:#ffec00;}</style></defs><title>bwss</title><rect width="1125" height="2436"/><path class="a" d="M522.64,1143.3H534l-10,58.54H512.63Z"/><path class="a" d="M533.59,1184.47a18.87,18.87,0,0,1,3.78-9.44,23,23,0,0,1,7.74-6.42,23.68,23.68,0,0,1,10.2-2.27,18.9,18.9,0,0,1,9.44,2.27,14.23,14.23,0,0,1,6,6.42,15.06,15.06,0,0,1,1.32,9.25,18.86,18.86,0,0,1-3.77,9.44,23,23,0,0,1-7.75,6.42,23.66,23.66,0,0,1-10.19,2.27,19.45,19.45,0,0,1-9.45-2.27,14.12,14.12,0,0,1-6-6.42A16.31,16.31,0,0,1,533.59,1184.47Zm11.71,0a7.73,7.73,0,0,0,1.13,5.85,5.69,5.69,0,0,0,4.91,2.65,8.18,8.18,0,0,0,4.16-1.13,9.1,9.1,0,0,0,3.39-3.22,9.36,9.36,0,0,0,1.7-4.34,7.74,7.74,0,0,0-1.13-5.85,5.69,5.69,0,0,0-4.91-2.65,8,8,0,0,0-4.15,1.14,10.91,10.91,0,0,0-3.4,3.21A9.46,9.46,0,0,0,545.3,1184.47Z"/><path class="a" d="M576.65,1184.47a18.86,18.86,0,0,1,3.77-9.44,23,23,0,0,1,7.75-6.42,23.63,23.63,0,0,1,10.19-2.27,18.87,18.87,0,0,1,9.44,2.27,14.2,14.2,0,0,1,6.05,6.42,15.06,15.06,0,0,1,1.32,9.25,18.87,18.87,0,0,1-3.78,9.44,23.09,23.09,0,0,1-7.74,6.42,23.68,23.68,0,0,1-10.2,2.27,19.38,19.38,0,0,1-9.44-2.27,14.12,14.12,0,0,1-6-6.42A16.31,16.31,0,0,1,576.65,1184.47Zm11.52,0a7.73,7.73,0,0,0,1.13,5.85,5.69,5.69,0,0,0,4.91,2.65,8.12,8.12,0,0,0,4.15-1.13,9.13,9.13,0,0,0,3.4-3.22,9.46,9.46,0,0,0,1.7-4.34,7.74,7.74,0,0,0-1.13-5.85,5.71,5.71,0,0,0-4.91-2.65,8.09,8.09,0,0,0-4.16,1.14,11,11,0,0,0-3.4,3.21A17.17,17.17,0,0,0,588.17,1184.47Z"/><path class="a" d="M619.13,1184.47a19.69,19.69,0,0,1,3.4-9.25,20,20,0,0,1,6.8-6.42,17.08,17.08,0,0,1,8.69-2.27,10.57,10.57,0,0,1,6.61,1.89,14.15,14.15,0,0,1,4,4.91l5.1-30.22H665l-10,58.54H643.68l.76-4.91a18.29,18.29,0,0,1-5.29,4.16,14.86,14.86,0,0,1-6.61,1.51,11.94,11.94,0,0,1-7.74-2.45,15.63,15.63,0,0,1-4.72-6.61A19,19,0,0,1,619.13,1184.47Zm11.9,0a8.21,8.21,0,0,0,1.13,6,5.81,5.81,0,0,0,5.1,2.65,7.41,7.41,0,0,0,4-1.14,12.71,12.71,0,0,0,3.4-3,11.89,11.89,0,0,0,1.89-4.15l.19-.95a8.76,8.76,0,0,0-1.33-5.85,5.78,5.78,0,0,0-4.72-2.64,8.71,8.71,0,0,0-4.34,1.13,11.35,11.35,0,0,0-5.29,7.93Z"/><path class="a" d="M463.53,1232.81c1.7,1.51,4.16,4.35,5.85,5.48a7.9,7.9,0,0,0,5.1,1.7,4.33,4.33,0,0,0,2.65-.76,3.2,3.2,0,0,0,1.32-1.88,2.09,2.09,0,0,0-.76-2.08,13.23,13.23,0,0,0-2.45-1.51c-.95-.38-2.08-.76-3-1.14a16.3,16.3,0,0,1-4.35-2.45,11,11,0,0,1-3-3.59,8.64,8.64,0,0,1-.75-5.1,10.49,10.49,0,0,1,2.45-5.28,12.6,12.6,0,0,1,4.91-3.4,18.32,18.32,0,0,1,6.42-1.14,20.22,20.22,0,0,1,7.74,1.51,26.38,26.38,0,0,1,6.24,3.78l-4.91,7.18a27.94,27.94,0,0,0-4.16-3,9.58,9.58,0,0,0-4.34-1.33,6,6,0,0,0-2.64.57,2.4,2.4,0,0,0-1.33,1.7,2,2,0,0,0,.95,2.08,20.07,20.07,0,0,0,2.83,1.51c1.13.56,2.27.75,3.21,1.13a19.63,19.63,0,0,1,4.34,2.46,10.29,10.29,0,0,1,3,3.39,8.67,8.67,0,0,1,.75,5.1,11.39,11.39,0,0,1-4.53,8.12,16,16,0,0,1-9.82,2.84,20.85,20.85,0,0,1-9.25-2.08c-2.84-1.32-5.29-5.1-7.37-7.18Z"/><path class="a" d="M493.93,1212.61h11.71l3.78,17.37,13.22-20.21,6.42,20.4,10-17.56h12.08l-23.79,37L519.81,1229l-14.55,20.58Z"/><path class="a" d="M559.65,1232.25a8.27,8.27,0,0,0,1.89,4.91,6.25,6.25,0,0,0,4.91,2.07,9.63,9.63,0,0,0,4.72-1.13,10.38,10.38,0,0,0,3.4-3l9.63,2.83a23.61,23.61,0,0,1-7.37,7,20.07,20.07,0,0,1-11,2.83,17.16,17.16,0,0,1-9.44-2.45,16.43,16.43,0,0,1-6-6.42,16.87,16.87,0,0,1-1.32-9.26c.18-.56.18-1.32.37-1.89s.38-1.32.57-1.88a21.29,21.29,0,0,1,4.34-7.56,22.72,22.72,0,0,1,7.18-5.1,21,21,0,0,1,9.06-1.7,16.8,16.8,0,0,1,8.88,2.27A13.59,13.59,0,0,1,585,1220a18.23,18.23,0,0,1,1.13,9.26l-.19,1.32c0,.56-.19,1.13-.19,1.7Zm1.32-6.42h14.17a6.21,6.21,0,0,0-1.52-4.16,5.16,5.16,0,0,0-4.34-1.7,8.46,8.46,0,0,0-5.29,1.7A9.53,9.53,0,0,0,561,1225.83Z"/><path class="a" d="M590.05,1230a19.59,19.59,0,0,1,3.4-9.25,21.94,21.94,0,0,1,6.8-6.42,17.76,17.76,0,0,1,8.69-2.46,10.57,10.57,0,0,1,6.61,1.89,13.23,13.23,0,0,1,4,5.1l1.14-6.42H632l-6.05,34.74H614.6l.95-5.28a17.33,17.33,0,0,1-5.48,4.34,14,14,0,0,1-6.8,1.7,12.85,12.85,0,0,1-7.93-2.45,13,13,0,0,1-4.72-6.61A20.07,20.07,0,0,1,590.05,1230Zm11.71,0a8.21,8.21,0,0,0,1.13,6,5.81,5.81,0,0,0,5.1,2.65,8.07,8.07,0,0,0,4.16-1.14,10.91,10.91,0,0,0,3.4-3.21,12.57,12.57,0,0,0,1.88-4.34,8.21,8.21,0,0,0-1.13-6,5.38,5.38,0,0,0-4.72-2.65,10,10,0,0,0-4.53,1.14,11.52,11.52,0,0,0-3.59,3.21A13.16,13.16,0,0,0,601.76,1230Z"/><path class="a" d="M643.9,1200.52h11.21L653,1212.61h6.19l-1.74,9.44h-6l-4.45,25.3H635.78l4.25-25.3h-6.18l1.74-9.44h6Z"/><path class="a" d="M661.43,1237.16l11.33,2.45-12.46,18.7-8.5-1.89Z"/><path class="a" d="M490.16,1281a19.59,19.59,0,0,1-3.4,9.25,22.06,22.06,0,0,1-6.8,6.42,17.76,17.76,0,0,1-8.69,2.46,10.94,10.94,0,0,1-6.61-1.89,14.15,14.15,0,0,1-4-4.91l-1.13,6H448.24l10-58.92h11.52l-4.91,29.08a15.45,15.45,0,0,1,11.9-5.66,11.86,11.86,0,0,1,7.74,2.45,14.17,14.17,0,0,1,4.72,6.61A17.8,17.8,0,0,1,490.16,1281Zm-11.9,0a8.24,8.24,0,0,0-1.13-6,5.81,5.81,0,0,0-5.1-2.64,8.71,8.71,0,0,0-4.16,1.13,11,11,0,0,0-3.39,3.21,9.43,9.43,0,0,0-1.7,4.35,8.22,8.22,0,0,0,1.13,6,6,6,0,0,0,4.72,2.83,8.81,8.81,0,0,0,4.34-1.13,11.65,11.65,0,0,0,3.59-3.21A10.17,10.17,0,0,0,478.26,1281Z"/><path class="a" d="M511.21,1182.39a19.66,19.66,0,0,1-3.4,9.26,22.06,22.06,0,0,1-6.8,6.42,17.75,17.75,0,0,1-8.69,2.45,10.87,10.87,0,0,1-6.61-1.89,14.15,14.15,0,0,1-4-4.91l-1.14,6H469.28l10-58.92h11.52l-4.91,29.08a15.5,15.5,0,0,1,11.9-5.67,11.89,11.89,0,0,1,7.74,2.46,14.17,14.17,0,0,1,4.72,6.61A17.75,17.75,0,0,1,511.21,1182.39Zm-11.9,0a8.22,8.22,0,0,0-1.13-6,5.81,5.81,0,0,0-5.1-2.64,8.6,8.6,0,0,0-4.16,1.13,11,11,0,0,0-3.4,3.21,9.45,9.45,0,0,0-1.69,4.34,8.24,8.24,0,0,0,1.13,6,6,6,0,0,0,4.72,2.83,8.81,8.81,0,0,0,4.34-1.13,11.65,11.65,0,0,0,3.59-3.21A10.38,10.38,0,0,0,499.31,1182.39Z"/><path class="a" d="M506,1283.23a8.22,8.22,0,0,0,1.89,4.91,6.26,6.26,0,0,0,4.91,2.08,9.75,9.75,0,0,0,4.72-1.13,10.5,10.5,0,0,0,3.4-3l9.63,2.83a23.61,23.61,0,0,1-7.37,7,20.18,20.18,0,0,1-11,2.83,17.16,17.16,0,0,1-9.44-2.46,16.36,16.36,0,0,1-6-6.42,16.82,16.82,0,0,1-1.33-9.25c.19-.57.19-1.32.38-1.89s.38-1.32.57-1.89a21.33,21.33,0,0,1,4.34-7.55,22.41,22.41,0,0,1,7.18-5.1,21,21,0,0,1,9.06-1.7,16.8,16.8,0,0,1,8.88,2.27,13.46,13.46,0,0,1,5.47,6.23,18.06,18.06,0,0,1,1.14,9.25l-.19,1.32c0,.57-.19,1.14-.19,1.7Zm1.13-6.42h14.17a6.22,6.22,0,0,0-1.51-4.15,5.19,5.19,0,0,0-4.35-1.7,8.46,8.46,0,0,0-5.29,1.7A9.5,9.5,0,0,0,507.15,1276.81Z"/><path class="a" d="M547.56,1283.23a8.22,8.22,0,0,0,1.89,4.91,6.29,6.29,0,0,0,4.91,2.08,9.75,9.75,0,0,0,4.72-1.13,10.3,10.3,0,0,0,3.4-3l9.63,2.83a23.58,23.58,0,0,1-7.36,7,20.18,20.18,0,0,1-11,2.83,17.22,17.22,0,0,1-9.45-2.46,16.36,16.36,0,0,1-6-6.42,16.82,16.82,0,0,1-1.32-9.25c.19-.57.19-1.32.38-1.89s.37-1.32.56-1.89a21.51,21.51,0,0,1,4.35-7.55,22.37,22.37,0,0,1,7.17-5.1,21,21,0,0,1,9.07-1.7,16.74,16.74,0,0,1,8.87,2.27,13.43,13.43,0,0,1,5.48,6.23,18.17,18.17,0,0,1,1.13,9.25l-.19,1.32c0,.57-.19,1.14-.19,1.7Zm1.33-6.42h14.16a6.22,6.22,0,0,0-1.51-4.15,5.19,5.19,0,0,0-4.34-1.7,8.46,8.46,0,0,0-5.29,1.7A9.42,9.42,0,0,0,548.89,1276.81Z"/><path class="a" d="M602.14,1275.49a10.3,10.3,0,0,0-1.7-1.32,4,4,0,0,0-2.27-.57,6.14,6.14,0,0,0-4.53,1.89A11,11,0,0,0,591,1280l-3.21,18.32H576.65l6-34.75h11.14l-.76,4.91a18.16,18.16,0,0,1,4.35-4.15,8.33,8.33,0,0,1,4.91-1.51,6.61,6.61,0,0,1,3.4.94,8.87,8.87,0,0,1,2.45,2.08Z"/><path class="a" d="M611.77,1285.12c1.7,1.51,3.59,2.83,5.29,4.16a7,7,0,0,0,5.1,1.7,4.32,4.32,0,0,0,2.64-.76,3.17,3.17,0,0,0,1.32-1.89,2.12,2.12,0,0,0-.75-2.08,14.53,14.53,0,0,0-2.46-1.51c-.94-.37-2.08-.75-3-1.13a16.35,16.35,0,0,1-4.34-2.45,10.88,10.88,0,0,1-3-3.59,8.56,8.56,0,0,1-.76-5.1,10.57,10.57,0,0,1,2.45-5.29,13,13,0,0,1,4.91-3.4,18.56,18.56,0,0,1,6.43-1.13,20.3,20.3,0,0,1,7.74,1.51,26.19,26.19,0,0,1,6.23,3.78l-4.91,7.17a29.38,29.38,0,0,0-4.15-3,9.76,9.76,0,0,0-4.35-1.32,6,6,0,0,0-2.64.57,2.34,2.34,0,0,0-1.32,1.7,2,2,0,0,0,.94,2.07,18.67,18.67,0,0,0,2.83,1.51c1.14.57,2.27.76,3.21,1.14a19.89,19.89,0,0,1,4.35,2.45,10.5,10.5,0,0,1,3,3.4,8.64,8.64,0,0,1,.75,5.1,11.34,11.34,0,0,1-4.53,8.12c-2.45,1.89-5.85,2.83-9.82,2.83a20.84,20.84,0,0,1-9.25-2.07,26.4,26.4,0,0,1-7.37-5.29Z"/><path class="a" d="M642.36,1293.05a6.69,6.69,0,0,1,1.89-4.91,7,7,0,0,1,5.1-2.07,7.75,7.75,0,0,1,5.29,2.07,6.85,6.85,0,0,1,2.07,4.91,7.09,7.09,0,0,1-7.36,7,7,7,0,0,1-5.1-2.08A6.69,6.69,0,0,1,642.36,1293.05Z"/><path d="M526.64,1138.41H538L528,1197H516.63Z"/><path d="M537.59,1179.58a18.87,18.87,0,0,1,3.78-9.44,23.11,23.11,0,0,1,7.74-6.42,23.68,23.68,0,0,1,10.2-2.27,18.9,18.9,0,0,1,9.44,2.27,14.23,14.23,0,0,1,6,6.42,15.06,15.06,0,0,1,1.32,9.25,18.93,18.93,0,0,1-3.77,9.45,23.26,23.26,0,0,1-7.75,6.42,23.66,23.66,0,0,1-10.19,2.26,19.45,19.45,0,0,1-9.45-2.26,14.17,14.17,0,0,1-6-6.42A16.36,16.36,0,0,1,537.59,1179.58Zm11.71,0a7.75,7.75,0,0,0,1.13,5.86,5.69,5.69,0,0,0,4.91,2.64,8.18,8.18,0,0,0,4.16-1.13,9.15,9.15,0,0,0,3.39-3.21,9.43,9.43,0,0,0,1.7-4.35,7.74,7.74,0,0,0-1.13-5.85,5.69,5.69,0,0,0-4.91-2.64,8,8,0,0,0-4.15,1.13,10.91,10.91,0,0,0-3.4,3.21A9.46,9.46,0,0,0,549.3,1179.58Z"/><path d="M580.65,1179.58a18.86,18.86,0,0,1,3.77-9.44,23.15,23.15,0,0,1,7.75-6.42,23.63,23.63,0,0,1,10.19-2.27,18.87,18.87,0,0,1,9.44,2.27,14.2,14.2,0,0,1,6.05,6.42,15.06,15.06,0,0,1,1.32,9.25,18.94,18.94,0,0,1-3.78,9.45,23.33,23.33,0,0,1-7.74,6.42,23.67,23.67,0,0,1-10.2,2.26,19.38,19.38,0,0,1-9.44-2.26,14.17,14.17,0,0,1-6-6.42A16.36,16.36,0,0,1,580.65,1179.58Zm11.52,0a7.75,7.75,0,0,0,1.13,5.86,5.69,5.69,0,0,0,4.91,2.64,8.12,8.12,0,0,0,4.15-1.13,9.18,9.18,0,0,0,3.4-3.21,9.54,9.54,0,0,0,1.7-4.35,7.74,7.74,0,0,0-1.13-5.85,5.7,5.7,0,0,0-4.91-2.64,8.08,8.08,0,0,0-4.16,1.13,11,11,0,0,0-3.4,3.21A17.17,17.17,0,0,0,592.17,1179.58Z"/><path d="M623.13,1179.58a19.69,19.69,0,0,1,3.4-9.25,20,20,0,0,1,6.8-6.42,17.08,17.08,0,0,1,8.69-2.27,10.57,10.57,0,0,1,6.61,1.89,14.15,14.15,0,0,1,4,4.91l5.1-30.21H669l-10,58.54H647.68l.76-4.91a18.25,18.25,0,0,1-5.29,4.15,14.73,14.73,0,0,1-6.61,1.51,11.88,11.88,0,0,1-7.74-2.45,15.63,15.63,0,0,1-4.72-6.61A19,19,0,0,1,623.13,1179.58Zm11.9,0a8.2,8.2,0,0,0,1.13,6,5.81,5.81,0,0,0,5.1,2.65,7.49,7.49,0,0,0,4-1.13,12.76,12.76,0,0,0,3.4-3,11.89,11.89,0,0,0,1.89-4.15l.19-.94a8.77,8.77,0,0,0-1.33-5.86,5.81,5.81,0,0,0-4.72-2.64,8.81,8.81,0,0,0-4.34,1.13,11,11,0,0,0-3.4,3.21A10.83,10.83,0,0,0,635,1179.58Z"/><path d="M467.53,1227.92c1.7,1.52,4.16,4.35,5.85,5.48a7.9,7.9,0,0,0,5.1,1.7,4.39,4.39,0,0,0,2.65-.75,3.25,3.25,0,0,0,1.32-1.89,2.09,2.09,0,0,0-.76-2.08,13.79,13.79,0,0,0-2.45-1.51c-.95-.38-2.08-.76-3-1.13a16.32,16.32,0,0,1-4.35-2.46,11,11,0,0,1-3-3.59,8.64,8.64,0,0,1-.75-5.1,10.49,10.49,0,0,1,2.45-5.28,12.7,12.7,0,0,1,4.91-3.4,18.32,18.32,0,0,1,6.42-1.14,20,20,0,0,1,7.74,1.52,26,26,0,0,1,6.24,3.77l-4.91,7.18a28.67,28.67,0,0,0-4.16-3,9.58,9.58,0,0,0-4.34-1.33,6,6,0,0,0-2.64.57,2.42,2.42,0,0,0-1.33,1.7,2,2,0,0,0,.95,2.08,19.09,19.09,0,0,0,2.83,1.51,33.17,33.17,0,0,0,3.21,1.13,19.63,19.63,0,0,1,4.34,2.46,10.22,10.22,0,0,1,3,3.4,8.62,8.62,0,0,1,.75,5.09,11.43,11.43,0,0,1-4.53,8.13,16,16,0,0,1-9.82,2.83,20.85,20.85,0,0,1-9.25-2.08c-2.84-1.32-5.29-5.1-7.37-7.18Z"/><path d="M497.93,1207.72h11.71l3.78,17.37,13.22-20.2,6.42,20.39,10-17.56h12.08l-23.79,37-7.55-20.58-14.55,20.58Z"/><path d="M563.65,1227.36a8.22,8.22,0,0,0,1.89,4.91,6.26,6.26,0,0,0,4.91,2.08,9.64,9.64,0,0,0,4.72-1.14,10.38,10.38,0,0,0,3.4-3l9.63,2.83a23.5,23.5,0,0,1-7.37,7,20.07,20.07,0,0,1-11,2.83,17.16,17.16,0,0,1-9.44-2.45,16.43,16.43,0,0,1-6-6.42,16.87,16.87,0,0,1-1.32-9.26c.18-.56.18-1.32.37-1.88s.38-1.33.57-1.89a21.29,21.29,0,0,1,4.34-7.56,22.54,22.54,0,0,1,7.18-5.09,20.82,20.82,0,0,1,9.06-1.7,16.8,16.8,0,0,1,8.88,2.26,13.59,13.59,0,0,1,5.48,6.23,18.23,18.23,0,0,1,1.13,9.26l-.19,1.32c0,.57-.19,1.13-.19,1.7Zm1.32-6.42h14.17a6.23,6.23,0,0,0-1.52-4.16,5.16,5.16,0,0,0-4.34-1.7,8.46,8.46,0,0,0-5.29,1.7A9.59,9.59,0,0,0,565,1220.94Z"/><path d="M594.05,1225.09a19.59,19.59,0,0,1,3.4-9.25,22.06,22.06,0,0,1,6.8-6.42,17.76,17.76,0,0,1,8.69-2.46,10.57,10.57,0,0,1,6.61,1.89,13.23,13.23,0,0,1,4,5.1l1.14-6.42H636l-6.05,34.75H618.6l.95-5.29a17.33,17.33,0,0,1-5.48,4.34,13.89,13.89,0,0,1-6.8,1.7,12.78,12.78,0,0,1-7.93-2.45,13,13,0,0,1-4.72-6.61A20.07,20.07,0,0,1,594.05,1225.09Zm11.71,0a8.2,8.2,0,0,0,1.13,6,5.81,5.81,0,0,0,5.1,2.65,8.15,8.15,0,0,0,4.16-1.13,11.14,11.14,0,0,0,3.4-3.21,12.7,12.7,0,0,0,1.88-4.35,8.22,8.22,0,0,0-1.13-6,5.37,5.37,0,0,0-4.72-2.64,10,10,0,0,0-4.53,1.13,11.52,11.52,0,0,0-3.59,3.21A13.16,13.16,0,0,0,605.76,1225.09Z"/><path d="M647.9,1195.63h11.21L657,1207.72h6.19l-1.74,9.44h-6L651,1242.47H639.78l4.25-25.31h-6.18l1.74-9.44h6Z"/><path d="M665.43,1232.27l11.33,2.45-12.46,18.7-8.5-1.89Z"/><path d="M494.16,1276.08a19.59,19.59,0,0,1-3.4,9.25,21.94,21.94,0,0,1-6.8,6.42,17.76,17.76,0,0,1-8.69,2.46,10.94,10.94,0,0,1-6.61-1.89,14.15,14.15,0,0,1-4-4.91l-1.13,6H452.24l10-58.92h11.52l-4.91,29.09a15.41,15.41,0,0,1,11.9-5.67,11.87,11.87,0,0,1,7.74,2.46,14.14,14.14,0,0,1,4.72,6.6A17.8,17.8,0,0,1,494.16,1276.08Zm-11.9,0a8.21,8.21,0,0,0-1.13-6,5.81,5.81,0,0,0-5.1-2.65,8.62,8.62,0,0,0-4.16,1.14,10.77,10.77,0,0,0-3.39,3.21,9.36,9.36,0,0,0-1.7,4.34,8.22,8.22,0,0,0,1.13,6,6,6,0,0,0,4.72,2.83,8.71,8.71,0,0,0,4.34-1.13,11.52,11.52,0,0,0,3.59-3.21A10.17,10.17,0,0,0,482.26,1276.08Z"/><path d="M515.21,1177.5a19.66,19.66,0,0,1-3.4,9.26,22.06,22.06,0,0,1-6.8,6.42,17.75,17.75,0,0,1-8.69,2.45,10.87,10.87,0,0,1-6.61-1.89,14.21,14.21,0,0,1-4-4.9l-1.14,6H473.28l10-58.92h11.52L489.9,1165a15.45,15.45,0,0,1,11.9-5.66,11.88,11.88,0,0,1,7.74,2.45,14.17,14.17,0,0,1,4.72,6.61A17.76,17.76,0,0,1,515.21,1177.5Zm-11.9,0a8.22,8.22,0,0,0-1.13-6,5.81,5.81,0,0,0-5.1-2.64,8.71,8.71,0,0,0-4.16,1.13,11.14,11.14,0,0,0-3.4,3.21,9.45,9.45,0,0,0-1.69,4.34,8.24,8.24,0,0,0,1.13,6,6,6,0,0,0,4.72,2.83,8.81,8.81,0,0,0,4.34-1.13,11.65,11.65,0,0,0,3.59-3.21A10.33,10.33,0,0,0,503.31,1177.5Z"/><path d="M510,1278.35a8.21,8.21,0,0,0,1.89,4.9,6.23,6.23,0,0,0,4.91,2.08,9.75,9.75,0,0,0,4.72-1.13,10.5,10.5,0,0,0,3.4-3l9.63,2.83a23.61,23.61,0,0,1-7.37,7,20.09,20.09,0,0,1-11,2.83,17.16,17.16,0,0,1-9.44-2.46,16.29,16.29,0,0,1-6-6.42,16.82,16.82,0,0,1-1.33-9.25c.19-.57.19-1.32.38-1.89s.38-1.32.57-1.89a21.33,21.33,0,0,1,4.34-7.55,22.41,22.41,0,0,1,7.18-5.1,21,21,0,0,1,9.06-1.7,16.8,16.8,0,0,1,8.88,2.27,13.51,13.51,0,0,1,5.47,6.23,18.08,18.08,0,0,1,1.14,9.25l-.19,1.33c0,.56-.19,1.13-.19,1.69H510Zm1.13-6.43h14.17a6.22,6.22,0,0,0-1.51-4.15,5.19,5.19,0,0,0-4.35-1.7,8.46,8.46,0,0,0-5.29,1.7A9.5,9.5,0,0,0,511.15,1271.92Z"/><path d="M551.56,1278.35a8.21,8.21,0,0,0,1.89,4.9,6.26,6.26,0,0,0,4.91,2.08,9.75,9.75,0,0,0,4.72-1.13,10.3,10.3,0,0,0,3.4-3l9.63,2.83a23.58,23.58,0,0,1-7.36,7,20.09,20.09,0,0,1-11,2.83,17.22,17.22,0,0,1-9.45-2.46,16.29,16.29,0,0,1-6-6.42,16.82,16.82,0,0,1-1.32-9.25c.19-.57.19-1.32.38-1.89s.37-1.32.56-1.89a21.51,21.51,0,0,1,4.35-7.55,22.37,22.37,0,0,1,7.17-5.1,21,21,0,0,1,9.07-1.7,16.74,16.74,0,0,1,8.87,2.27,13.48,13.48,0,0,1,5.48,6.23,18.19,18.19,0,0,1,1.13,9.25l-.19,1.33c0,.56-.19,1.13-.19,1.69H551.56Zm1.33-6.43h14.16a6.22,6.22,0,0,0-1.51-4.15,5.19,5.19,0,0,0-4.34-1.7,8.46,8.46,0,0,0-5.29,1.7A9.42,9.42,0,0,0,552.89,1271.92Z"/><path d="M606.14,1270.6a10.87,10.87,0,0,0-1.7-1.32,4,4,0,0,0-2.27-.57,6.14,6.14,0,0,0-4.53,1.89,11,11,0,0,0-2.64,4.53l-3.21,18.32H580.65l6-34.74h11.14l-.76,4.91a18.21,18.21,0,0,1,4.35-4.16,8.33,8.33,0,0,1,4.91-1.51,6.61,6.61,0,0,1,3.4.94,9,9,0,0,1,2.45,2.08Z"/><path d="M615.77,1280.23c1.7,1.51,3.59,2.84,5.29,4.16a7,7,0,0,0,5.1,1.7,4.32,4.32,0,0,0,2.64-.76,3.15,3.15,0,0,0,1.32-1.89,2.09,2.09,0,0,0-.75-2.07,13.34,13.34,0,0,0-2.46-1.51c-.94-.38-2.08-.76-3-1.14a16.08,16.08,0,0,1-4.34-2.45,10.88,10.88,0,0,1-3-3.59,8.56,8.56,0,0,1-.76-5.1,10.57,10.57,0,0,1,2.45-5.29,13,13,0,0,1,4.91-3.4,18.56,18.56,0,0,1,6.43-1.13,20.3,20.3,0,0,1,7.74,1.51,26.52,26.52,0,0,1,6.23,3.78l-4.91,7.17a29.38,29.38,0,0,0-4.15-3,9.76,9.76,0,0,0-4.35-1.32,6,6,0,0,0-2.64.57,2.36,2.36,0,0,0-1.32,1.7,2,2,0,0,0,.94,2.08,20.65,20.65,0,0,0,2.83,1.51c1.14.56,2.27.75,3.21,1.13a20.31,20.31,0,0,1,4.35,2.45,10.5,10.5,0,0,1,3,3.4,8.64,8.64,0,0,1,.75,5.1,11.34,11.34,0,0,1-4.53,8.12c-2.45,1.89-5.85,2.83-9.82,2.83a20.84,20.84,0,0,1-9.25-2.07,26.2,26.2,0,0,1-7.37-5.29Z"/><path d="M646.36,1288.16a6.72,6.72,0,0,1,1.89-4.91,7,7,0,0,1,5.1-2.07,7.75,7.75,0,0,1,5.29,2.07,6.89,6.89,0,0,1,2.07,4.91,7.19,7.19,0,0,1-2.07,4.91,7.09,7.09,0,0,1-5.29,2.08,6.94,6.94,0,0,1-5.1-2.08A6.69,6.69,0,0,1,646.36,1288.16Z"/></svg>